<svg version="1.1" id="Layer_1" xmlns="http://www.w3.org/2000/svg" xmlns:xlink="http://www.w3.org/1999/xlink" x="0px" y="0px"
	 viewBox="0 0 1920 1080" style="enable-background:new 0 0 1920 1080;" xml:space="preserve">
    <style type="text/css">
        .st0{fill:#45A8F5;}
        .st1{opacity:0.2;}
        .st2{fill:#FFFFFF;}
        .st3{stroke:#000000;stroke-miterlimit:10;}
        .st4{opacity:0.7;}
        .st5{fill:#4C3E35;}
        .st6{fill:#A3EAFF;}
        .st7{fill:#7BD1F6;}
        .st8{fill:#F0BB8F;}
        .st9{fill:#694329;}
        .st10{fill:#303269;}
        .st11{fill:#D6F0FF;}
        .st12{fill:#F8F3E0;}
        .st13{fill:#7A553C;}
        .st14{fill:#F8EBE0;}
        .st15{fill:#759EE0;}
        .st16{display:none;opacity:0.3;}
        .st17{display:inline;fill:#64BCF9;}
        .st18{fill:#C3C6D5;}
        .st19{fill:#614F45;}
        .st20{opacity:0.5;}
        .st21{fill:#DBDFE8;}
        .st22{fill:#B0B54F;}
        .st23{fill:#E37022;}
        .st24{opacity:0.3;}
        .st25{fill:#D3EFFC;}
        .st26{fill:#C9C94F;}
        .st27{fill:#E8AB79;}
        .st28{fill:#EF7A2B;}
        .st29{display:none;}
        .st30{display:inline;}
        .st31{stroke:#020202;stroke-miterlimit:10;}
        .st32{display:inline;fill:#1E0F00;stroke:#000000;stroke-miterlimit:10;}
        .st33{opacity:0.5;fill:#F8EBE0;}
        .st34{display:none;opacity:0.5;fill:#F8EBE0;}
        .st35{display:inline;opacity:0.5;}
        .st36{display:inline;opacity:0.7;}
        .st37{display:inline;opacity:0.3;}
        .st38{display:inline;stroke:#000000;stroke-miterlimit:10;}
        .st39{fill:#713C1F;}
        .st40{fill:#EF384C;}
        .st41{fill:#827A7F;}
        .st42{fill:#ECF0FA;}
        .st43{fill:#403834;}
        .st44{fill:#A39484;}
        .st45{fill:#96897A;}
        .st46{fill:#E0A97B;}
        .st47{fill:#D6A176;}
        .st48{fill:#D9293C;}
        .st49{fill:#F2F2EB;}
        .st50{fill:#4A4D8F;}
        .st51{fill:#20323B;}
        .st52{fill:#FFD765;}
        .st53{fill:#FFC92E;}
        .st54{fill:#A55F3E;}
        .st55{fill:#151724;}
        .st56{fill:#808080;}
        .st57{fill:#3B2012;}

        #p7_1:not(:hover) .st5, #p7_1:not(:hover) .st6, #p7_1:not(:hover) .st7, #p7_1:not(:hover) .st8, #p7_1:not(:hover) .st9,
        #p7_1:not(:hover) .st10, #p7_1:not(:hover) .st11, #p7_1:not(:hover) .st12, #p7_1:not(:hover) .st13, #p7_1:not(:hover) .st14,
        #p7_1:not(:hover) .st15, #p7_1:not(:hover) .st4{
            fill: #000000;
            stroke: #000000;
        }

        #p3_1_:not(:hover) .st18, #p3_1_:not(:hover) .st19, #p3_1_:not(:hover) .st8, #p3_1_:not(:hover) .st6, #p3_1_:not(:hover) .st20,
        #p3_1_:not(:hover) .st7, #p3_1_:not(:hover) .st21, #p3_1_:not(:hover) .st22, #p3_1_:not(:hover) .st23, #p3_1_:not(:hover) .st24,
        #p3_1_:not(:hover) .st25, #p3_1_:not(:hover) .st26, #p3_1_:not(:hover) .st27, #p3_1_:not(:hover) .st28,
        #p3_1_:not(:hover) .st2{
            fill: #000000;
            stroke: #000000;
        }
        #p1:not(:hover) .st20, #p1:not(:hover) .st14, #p1:not(:hover) .st8, #p1:not(:hover) .st5, #p1:not(:hover) .st19, #p1:not(:hover) .st11, #p1:not(:hover) .st5,
        #p1:not(:hover) .st4, #p1:not(:hover) .st39, #p1:not(:hover) .st40, #p1:not(:hover) .st27, #p1:not(:hover) .st18, #p1:not(:hover) .st41, #p1:not(:hover) .st21,
        #p1:not(:hover) .st42, #p1:not(:hover) .st2, #p1:not(:hover) .st24, #p1_1_:not(:hover) .st2{
            fill: #000000;
            stroke: #000000;
        } 
        #p2_1_:not(:hover) .st26, #p2_1_:not(:hover) .st9, #p2_1_:not(:hover) .st20, #p2_1_:not(:hover) .st22, #p2_1_:not(:hover) .st5, #p2_1_:not(:hover) .st13, #p2_1_:not(:hover) .st24,
        #p2_1_:not(:hover) .st8, #p2_1_:not(:hover) .st21, #p2_1_:not(:hover) .st18, #p2_1_:not(:hover) .st2, #p2_1_:not(:hover) .st43, #p2_1_:not(:hover) .st27{
            fill: #000000;
            stroke: #000000;
        } 
        #p4_1_:not(:hover) .st5, #p4_1_:not(:hover) .st44, #p4_1_:not(:hover) .st45, #p4_1_:not(:hover) .st8, #p4_1_:not(:hover) .st24, #p4_1_:not(:hover) .st46,
        #p4_1_:not(:hover) .st47, #p4_1_:not(:hover) .st40, #p4_1_:not(:hover) .st48, #p4_1_:not(:hover) .st49, #p4_1_:not(:hover) .st5, #p4_1_:not(:hover) .st50,
        #p4_1_:not(:hover) .st10, #p4_1_:not(:hover) .st12, #p4_1_:not(:hover) .st13, #p4_1_:not(:hover) .st15, #p4_1_:not(:hover) .st51, #p4_1_:not(:hover) .st2,
        #p4_1_:not(:hover) .st9{
            fill: #000000;
            stroke: #000000;
        }
        #p8_1_:not(:hover) .st20, #p8_1_:not(:hover) .st14, #p8_1_:not(:hover) .st13, #p8_1_:not(:hover) .st9, #p8_1_:not(:hover) .st52, #p8_1_:not(:hover) .st53,
        #p8_1_:not(:hover) .st5, #p8_1_:not(:hover) .st19, #p8_1_:not(:hover) .st19, #p8_1_:not(:hover) .st54, #p8_1_:not(:hover) .st55, #p8_1_:not(:hover) .st21,
        #p8_1_:not(:hover) .st2, #p8_1_:not(:hover) .st18, #p8_1_:not(:hover) .st1, #p8_1_:not(:hover) .st2 {
            fill: #000000;
            stroke: #000000;
        }
        #p5_1_:not(:hover) .st19, #p5_1_:not(:hover) .st10, #p5_1_:not(:hover) .st50, #p5_1_:not(:hover) .st56, #p5_1_:not(:hover) .st6, #p5_1_:not(:hover) .st57,
        #p5_1_:not(:hover) .st8, #p5_1_:not(:hover) .st27, #p5_1_:not(:hover) .st2, #p5_1_:not(:hover) .st20, #p5_1_:not(:hover) .st7{
            fill: #000000;
            stroke: #000000;
        }
        #p6_1:not(:hover) .st5, #p6_1:not(:hover) .st10, #p6_1:not(:hover) .st50, #p6_1:not(:hover) .st8, #p6_1:not(:hover) .st27, #p6_1:not(:hover) .st52,
        #p6_1:not(:hover) .st53, #p6_1:not(:hover) .st12, #p6_1:not(:hover) .st13, #p6_1:not(:hover) .st9, #p6_1:not(:hover) .st14, #p6_1:not(:hover) .st15,
        #p6_1:not(:hover) .st57, #p6_1:not(:hover) .st2 {
            fill: #000000;
            stroke: #000000;
        }
    </style>
    <g>
        <rect class="st0" width="1920" height="1080"/>
    </g>

    <g>
        <g id="p7_1">
            <g>
                <path class="st5" d="M1027.76,800.37c-0.22,1.12-2.64,5.95,4.16,7.65c6.8,1.7,6.8-1.42,8.31-0.99c1.52,0.43,3.03,1.13,4.34,3.97
                    c1.32,2.83,14.74,7.08,17.39,7.51c2.64,0.43,13.22,1.28,17.57,0c4.35-1.27,4.16-5.1,3.78-5.95c-0.38-0.85-10.2-4.48-16.82-8.4
                    c-6.61-3.93-9.06-7.19-9.06-7.19L1027.76,800.37z"/>
            </g>
            <g>
                <path class="st5" d="M994.51,799.48c0.22,1.12,2.65,5.95-4.15,7.65c-6.8,1.7-6.8-1.42-8.31-0.99c-1.52,0.43-3.02,1.14-4.34,3.97
                    c-1.33,2.84-14.74,7.09-17.39,7.51c-2.65,0.42-13.22,1.28-17.57,0c-4.34-1.28-4.15-5.1-3.78-5.95c0.38-0.85,10.21-4.48,16.82-8.4
                    c6.62-3.92,9.07-7.18,9.07-7.18L994.51,799.48z"/>
            </g>
            <g>
                <path class="st6" d="M940.04,592.9c-1.88,21.38-5.24,21.76,0,57.83c5.24,36.07,14.15,55.59,12.96,61.83
                    c-1.19,6.23,5,85.13,6.18,86.91c1.19,1.78,19.14,5.48,35.33,0.01c0,0-1.73-51.73-2.92-63.31c-1.19-11.58-2.37-33.4-2.37-41.86
                    c0-8.46,2.9-43.57,2.9-43.57s16.67,59.6,17.28,68.96c0.6,9.35,10.24,78.83,14.03,81.05c3.79,2.23,32.89-0.45,36.45-3.11
                    c3.56-2.67-3.56-11.14-4.75-15.59c-1.19-4.45-10.69-58.34-10.69-70.37c0-12.02,0-19.96-2.37-39.11
                    c-2.37-19.15-10.09-72.97-10.09-72.97L940.04,592.9z"/>
            </g>
            <g>
                <path class="st7" d="M988.7,603.68l-26.56,7.18c0,0,13.4,89.37,12.57,102.61c-0.67,10.76,1.72,67.84,2.64,88.86
                    c5.39-0.12,11.39-0.89,17.16-2.85c0,0-1.73-51.73-2.92-63.31c-1.19-11.58-2.37-33.4-2.37-41.86c0-8.46,2.9-43.57,2.9-43.57
                    L988.7,603.68z"/>
            </g>
            <g>
                <path class="st7" d="M1047.24,800.44c6.07-0.75,11.27-1.78,12.65-2.81c3.56-2.67-3.56-11.14-4.75-15.59
                    c-1.19-4.45-10.69-58.34-10.69-70.37c0-12.02,0-19.96-2.37-39.11c-2.03-16.39-7.97-58.12-9.65-69.85
                    c-1.22-1.17-2.37-2.28-3.49-3.35l-16.82-1.22l-5.08,9.49c10.56,39.77,16.49,82.57,19.98,93.03
                    C1030.37,710.76,1034.88,781.05,1047.24,800.44z"/>
            </g>
            <g>
                <path class="st8" d="M966.37,453.94c-4.04-0.35-2.38,3.21-1.67,4.99c0.71,1.78,0.42,5.17,1.64,5.35
                    c1.21,0.18,3.82-1.43,3.82-1.43s0.71,4.45,4.51,10.52c3.8,6.06,11.41,9.44,17.58,8.73c6.17-0.71,19.49-7.42,20.43-14.05
                    c0,0-0.92,1.31,1.39,1.96c2.31,0.65,3.89-2.2,4.18-5.16c0.29-2.96,2.12-3.39,1.59-4.83c-0.53-1.44-4.1-1.81-6.21,1.4
                    c0,0,8.26-9.98,3.38-15.25c-4.88-5.27-21.48-8.5-21.48-8.5l-15.03,3.66L966.37,453.94z"/>
            </g>
            <g>
                <path class="st8" d="M974.58,475.75c-0.68,6.1-3.73,12.15-12.44,13.94c0,0,6.32,10.78,26.58,8.83c20.26-1.96,20.68-8.5,20.68-8.5
                    s-8.05-2.61-7.61-8.5L974.58,475.75z"/>
            </g>
            <g>
                <path class="st9" d="M969.98,458.76l3.04,1.6c0,0,1.19-13.9,7.84-15.68c6.66-1.78,11.41,1.96,20.2,1.25
                    c8.79-0.71,13.78,0.53,14.02,4.99c0.23,4.45-1.43,10.52-1.43,10.52l4.32-2.4c0,0,2.1-7.23,2.58-12.22
                    c0.47-4.99-4.52-12.48-13.31-13.55c-8.79-1.07-4.51-4.81-4.51-4.81s-27.33,0.54-30.66,9.8c0,0-6.18,1.25-5.7,15.68
                    C966.37,453.94,968.94,454.73,969.98,458.76z"/>
            </g>
            <g>
                <path class="st9" d="M968.74,463.62c-0.3,4.51-2.51,9.67,2.3,15.34c4.79,5.66,12.14,10.37,17.48,10.38
                    c5.5,0.01,15.1-4.15,19.28-7.9c4.17-3.76,4.9-13.38,4.9-13.38s-7.02,12.05-21.92,13.15c-16.38,1.2-20.61-18.35-20.61-18.35
                    L968.74,463.62z"/>
            </g>
            <g>
                <path class="st10" d="M962.14,489.69l26.58,8.83l20.68-8.5v123.04c0,0-56.74,2.55-65.48-5.46c-8.73-8.01,0-20.93,0-20.93
                    l3.88-61.01L962.14,489.69z"/>
            </g>
            <g>
                <path class="st9" d="M1011.21,466.24c-0.64,1.48-1.32,5.34-4.18,8.23c0,0,4.1-2.02,4.18-2.25c0.07-0.24,1.49-4.17,1.49-4.17
                    L1011.21,466.24z"/>
            </g>
            <g>
                <path class="st11" d="M1005.75,538.12c-0.49,12.03-7.22,68.14,0,86.85c0,0,11.64,2.67,19.82,1.34
                    c8.18-1.34,18.87-3.56,18.87-3.56s-2.92-20.93-6.21-35.63c-3.29-14.7-2.97-49-2.97-49l-9.69-9.79L1005.75,538.12z"/>
            </g>
            <g>
                <path class="st11" d="M938.28,548.47c1.06,8.81-0.22,28.4-5.52,42.21l10.73,11.58c0,0,17.1-26.72,18.65-34.29
                    c1.55-7.57,0-19.5,0-19.5H938.28z"/>
            </g>
            <g>
                <path class="st8" d="M930.55,608.24c3.67,6.36,7.68,11.44,9.49,12.29c1.81,0.85,8.87-9.75,6.05-15.04
                    C943.26,600.19,930.55,608.24,930.55,608.24z"/>
            </g>
            <g>
                <g>
                    <path class="st12" d="M1006.68,550.69l-3.69,23.65c0,0-10.51,4.26-20.31-0.18l0.39-24.17L1006.68,550.69z"/>
                </g>
                <g>
                    <path class="st13" d="M1009.64,548.67c-0.18,0.52-1.6,3.09-1.6,3.09l-26.23-0.93l0.06-3.71L1009.64,548.67z"/>
                </g>
                <g>
                    <polygon class="st9" points="1004.81,545.18 1006.72,548.51 984.45,547.27 986.78,544.07 				"/>
                </g>
                <g>
                    <path class="st14" d="M988.41,542.96c1.76-2.22,2.48-3.77,0.1-6.2c-2.37-2.44,1.65-5.59,1.65-5.59s-6.56,3.48-3.84,5.87
                        C989.04,539.44,989.85,539.36,988.41,542.96z"/>
                </g>
                <g>
                    <path class="st15" d="M987.61,561.86c-0.22,4.21,2.47,7.71,6.02,7.81c3.54,0.1,6.58-3.23,6.8-7.44c0.21-4.21-2.47-7.7-6.02-7.8
                        C990.87,554.32,987.82,557.65,987.61,561.86z"/>
                </g>
            </g>
            <g>
                <path class="st11" d="M962.14,489.69c-13.13,3-33.83,1.9-39.96,9.06c-6.13,7.16-18.02,67.83-18.79,72.43
                    c-0.76,4.6,25.19,40.29,26.72,41.72c1.53,1.44,18.93-7.98,18.93-7.98s-12.68-26.27-21.11-33.75c0,0,7.66-16.1,10.35-22.71h23.86
                    V489.69z"/>
            </g>
            <g>
                <path class="st8" d="M1022.19,565.92c-9.05,0.67-10.33-0.9-13.63-1.91c-3.31-1-11.52-5.62-13.27-3.84
                    c-1.76,1.78,4.96,4.2,6.16,5.31c1.21,1.12-0.86,1.77-6.46,1.79c-5.6,0.02-10.4-2.67-11.44-3.18c-1.03-0.51-1.07-0.78-1.66,2
                    c-0.58,2.78,1.91,7.78,4.38,9.42c2.46,1.64,10.87,3.7,14.75,3.95c3.87,0.24,18.19-3.14,20.87-3.21c2.67-0.08,7.82-0.9,7.82-0.9
                    L1022.19,565.92z"/>
            </g>
            <g class="st4">
                <path class="st11" d="M1032.2,522.28c0,0-5.57,28.55-5.19,43.44c0.38,14.89,7.85,45.64,4.12,48.53
                    c-3.1,2.4-20.78,5.16-26.72,6.04c0.39,1.72,0.82,3.32,1.34,4.68c0,0,11.64,2.67,19.82,1.34c8.18-1.34,18.87-3.56,18.87-3.56
                    s-2.92-20.93-6.21-35.63c-3.29-14.69-2.97-48.99-2.97-48.99L1032.2,522.28z"/>
            </g>
            <g>
                <path class="st11" d="M1009.4,490.02c12.44,2.96,29.69,4.69,34.68,6.7c4.98,2.01,22.62,48.3,24.91,56.35
                    c2.3,8.05,2.3,14.09,0,16.1c-2.29,2.01-43.43,10.36-45.74,10.93c-2.3,0.58-6.01-8.92-4.86-14.96l29.89-8.91l-13.03-18.11h-29.52
                    L1009.4,490.02z"/>
            </g>
            <g class="st4">
                <path class="st11" d="M919.9,569.39c0.28,1.27,16.57,28.57,22.72,38.85c3.53-1.76,6.43-3.32,6.43-3.32s-12.68-26.27-21.11-33.75
                    c0,0,7.66-16.1,10.35-22.71c0,0,1.69-13.99,0-20.14C938.28,528.32,919.54,567.83,919.9,569.39z"/>
            </g>
            <g class="st4">
                <path class="st11" d="M1019.69,575.47c1.05,2.85,2.47,4.91,3.57,4.63c2.3-0.57,43.44-8.92,45.74-10.93c2.3-2.02,2.3-8.05,0-16.1
                    c-0.14,6.89-1.94,9.81-2.89,10.59C1065.23,564.38,1030.73,574.38,1019.69,575.47z"/>
            </g>
            <g class="st4">
                <g>
                    <path class="st11" d="M1035.27,538.12l-3.06-15.84c0,0-1.36,6.98-2.7,15.84H1035.27z"/>
                </g>
            </g>
        </g>
        <g class="st16">
            <path class="st17" d="M1872.07,824.99c0,9.23-404.05,43.12-902.47,43.12c-498.42,0-902.47-33.89-902.47-43.12
                c0-9.23,404.05-16.72,902.47-16.72C1468.02,808.27,1872.07,815.75,1872.07,824.99z"/>
        </g>
        <g id="p3_1_">
                <g>
                    <path class="st18" d="M1810.39,805.53c0.6-2.81,1.21-7.63-2.09-8.17c0,0,0.18,2-5.96,2.55c-6.13,0.54-13.72,0.45-16.83-2.9
                        c0,0-3.12-0.54-3.6,0.91c-0.48,1.45-0.24,2.45-6.01,3.72c-5.77,1.27-19.71,2.36-19.59,8.7c0.12,6.35,1.8,6.26,5.77,7.26
                        c3.97,1,15.51,2.18,24.04-0.18c8.53-2.36,8.4-4.17,10.93-3.27c2.53,0.91,12.14-1.18,12.75-1.54
                        C1810.39,812.25,1810.39,805.53,1810.39,805.53z"/>
                </g>
                <g>
                    <path class="st19" d="M1762.07,817.6c-3.46-0.87-5.18-0.92-5.64-5.14c1.83,0.98,5.09,2.27,10.84,3.26
                        c10.61,1.84,21.21-1.87,23.36-3c2.15-1.13,5.14-1.63,7.13-1.13c1.99,0.5,8.45,0.37,12.53-2.25c-0.08,1.58-0.23,3.09-0.5,3.26
                        c-0.6,0.36-10.22,2.45-12.75,1.54c-2.53-0.91-2.4,0.91-10.93,3.27C1777.58,819.77,1766.04,818.59,1762.07,817.6z"/>
                </g>
                <g>
                    <path class="st8" d="M1807.77,794.01l0.84,5.37c0,0-0.24,2.33-11.94,2.33c-11.71,0-10.99-3.05-10.99-3.05l0.96-7.88
                        L1807.77,794.01z"/>
                </g>
                <g>
                    <path class="st8" d="M1842.58,803.24l0.88,5.64c0,0-0.25,2.44-12.53,2.44c-12.28,0-11.53-3.19-11.53-3.19l2-9.48L1842.58,803.24
                        z"/>
                </g>
                <g>
                    <path class="st6" d="M1816.94,645.97c4.63,9.3,2.68,17-0.67,27.73c-3.36,10.73-4.67,45.23-2.16,50.48
                        c2.51,5.25,4.67,21.65,2.27,37.53c-2.4,15.88-6.68,36.77-6.68,36.77s-16.7,0.06-27.2-3.77c0,0,3.5-48.33,3.03-53.84
                        c-0.46-5.51-2.76-16.61-6.39-23.22c-3.63-6.61-4.62-68.18-4.62-68.18L1816.94,645.97z"/>
                </g>
                <g class="st20">
                    <path class="st7" d="M1796.75,693.15c4,11.75-1.76,35.07,0.38,42.45c1.89,6.53-2.22,51.91-3.19,61.75
                        c-3.95-0.56-8.03-1.39-11.45-2.64c0,0,3.5-48.33,3.03-53.84c-0.46-5.51-2.76-16.61-6.39-23.22c-3.63-6.61-4.62-68.18-4.62-68.18
                        l10.13-0.83l5.68,1.81L1796.75,693.15z"/>
                </g>
                <g>
                    <path class="st6" d="M1835.52,639.33c6.2,9.72,5.07,18.17,2.82,30c-2.25,11.83,1.31,49.14,4.69,54.63
                        c3.38,5.49,8.06,22.81,7.5,40.13c-0.56,17.32-2.82,42.4-2.82,42.4s-18.03,1.27-29.85-2.11c0,0-2.1-54.65-3.3-60.56
                        c-1.2-5.91-5.37-17.51-10.13-24.38c-4.77-6.87-20.72-67.35-20.72-67.35L1835.52,639.33z"/>
                </g>
                <g>
                    <path class="st21" d="M1845.34,815.37c0.63-2.91,1.27-7.91-2.19-8.47c0,0,0.18,2.07-6.21,2.64c-6.39,0.56-14.31,0.47-17.56-3.01
                        c0,0-3.25-0.56-3.75,0.94c-0.5,1.5-0.25,2.54-6.27,3.85c-6.02,1.31-20.56,2.45-20.43,9.03c0.13,6.58,1.88,6.49,6.02,7.52
                        c4.14,1.03,16.17,2.25,25.07-0.19c8.9-2.45,8.77-4.32,11.4-3.39c2.64,0.94,12.66-1.22,13.29-1.6
                        C1845.34,822.33,1845.34,815.37,1845.34,815.37z"/>
                </g>
                <g>
                    <path class="st22" d="M1769.93,559.2c-10.65,2.79-14.08,10.11-16.36,20.98c-2.29,10.87-9.47,31.87-8.85,33.12
                        c0.63,1.24,16.13,6.31,16.13,6.31l14.24-23.57L1769.93,559.2z"/>
                </g>
                <g class="st20">
                    <path class="st7" d="M1783.7,652.08l6.63-1.63c8.5-0.41,18.35-1.75,18.35-1.75c1.69,11.25,8.72,64.24,13.92,72.41
                        c5.2,8.16,11.6,71,9.62,85.4c-4.82-0.29-10-0.9-14.35-2.14c0,0-2.1-54.65-3.3-60.56c-1.2-5.91-5.37-17.51-10.13-24.38
                        C1799.64,712.55,1783.7,652.08,1783.7,652.08z"/>
                </g>
                <g>
                    <path class="st23" d="M1786.98,501.61c-4.79-2.63-19.68,0.73-26.17,9.31c-6.49,8.58-7.62,46.54-11.28,52.55
                        c0,0,12.62,1.25,23.47-3.45c3.52-1.52,8.71-4.24,8.71-4.24l1.22-16.25L1786.98,501.61z"/>
                </g>
                <g>
                    <path class="st8" d="M1771.75,547.67c1.55,4.15,2.5,11.27-5.01,18.62c0,0,7.45,0.56,13.69-1.62
                        c6.23-2.19,11.37-27.17,11.37-27.17l-18.32-0.72L1771.75,547.67z"/>
                </g>
                <g class="st24">
                    <path class="st25" d="M1784.59,554.32c-7.31,2.26-12.14,3.89-14.66,4.87c-2.52,0.99-5.93,10.04-8.54,16.83
                        c-2.62,6.79-6.59,13.23-1.61,20.92c4.99,7.69,6.81,10.07,7.43,23.9c0.62,13.83,4.87,35.86,4.87,35.86s37.61,1.91,68.31-13.44
                        c0,0-12.17-21.23-15.42-28.84c-3.25-7.62-2.75-19.52-1.49-30.97c1.26-11.44,3.97-16.79-2.02-23.66
                        c-5.99-6.87-18-9.84-21.03-10.25C1797.4,549.11,1784.59,554.32,1784.59,554.32z"/>
                </g>
                <g>
                    <path class="st26" d="M1784.59,554.32c-7.31,2.26-12.14,3.89-14.66,4.87c-2.52,0.99-5.93,10.04-8.54,16.83
                        c-2.62,6.79-6.59,13.23-1.61,20.92c4.99,7.69,6.81,10.07,7.43,23.9c0.62,13.83,4.87,40.66,4.87,40.66s45.75,6.39,71.51-15.84
                        c0,0-15.37-23.63-18.62-31.24c-3.25-7.62-2.75-19.52-1.49-30.97c1.26-11.44,2.18-14.58-3.8-21.45
                        c-5.99-6.87-16.21-12.05-19.24-12.46C1797.4,549.11,1784.59,554.32,1784.59,554.32z"/>
                </g>
                <g class="st20">
                    <path class="st27" d="M1772.75,541.39l17.62-3.85c0,0,0.57,0.17,1.33,0.44c-0.3,1.41-1.36,6.13-2.93,11.25
                        c-6.84,1.63-16.64-0.2-16.64-0.2l-0.02-0.04c-0.1-0.45-0.2-0.91-0.35-1.32L1772.75,541.39z"/>
                </g>
                <g>
                    <path class="st8" d="M1816.5,633.31c-8.45,11.55-21.26,21.53-24.07,26.04s-2.71,13.5-8.18,17.57
                        c-4.85,3.61-10.26,3.29-9.63,1.83c0.68-1.61,4.17-11.69,3.65-12.49c-0.53-0.8-6.65,5.88-7.2,4.51
                        c-0.54-1.37,4.23-7.98,5.73-9.87c1.5-1.89,4.39-2.02,7.26-4.73c2.88-2.71,14.94-28.69,14.94-28.69l16.39-1.91L1816.5,633.31z"/>
                </g>
                <g>
                    <path class="st22" d="M1827.89,595c-0.19,6.58,1.22,15.62-0.67,20.15c-2.82,6.78-11.74,19.52-11.74,19.52s-8.48-6.77-16.47-7.18
                        c0,0,6.08-15.88,6.6-17.59c0.51-1.7-11.02-24.1-12.81-30.79c-1.42-5.34-1.47-19.19,9.65-23.72c2.8-1.15,6.56-2.94,10.67-1.8
                        c3.54,0.98,6.14,3.68,8.35,6.21C1827.46,566.66,1828.01,590.99,1827.89,595z"/>
                </g>
                <g>
                    <path class="st28" d="M1782.68,503.85c0,0-9.72,6.18-14.79,4.07c-1.8-0.75-1.27-1.87,0.13-3.01c6.99-3.96,15.53-5.18,18.96-3.31
                        l-0.33,3.09C1784.47,504.24,1782.68,503.85,1782.68,503.85z"/>
                </g>
                <g>
                    <path class="st19" d="M1794.95,827.87c-3.61-0.9-5.41-0.95-5.89-5.33c1.91,1.01,5.31,2.35,11.31,3.38
                        c11.06,1.9,22.12-1.95,24.37-3.11c2.25-1.16,5.35-1.69,7.43-1.16c2.07,0.51,8.81,0.38,13.07-2.33c-0.08,1.64-0.23,3.2-0.52,3.38
                        c-0.63,0.37-10.66,2.54-13.29,1.6c-2.64-0.94-2.5,0.94-11.4,3.39C1811.12,830.13,1799.09,828.9,1794.95,827.87z"/>
                </g>
                <g>
                    <path class="st28" d="M1790.37,537.53c-2.07,3.67-6.67,31.03-6.67,31.03s26.29-3.55,30.93-7.76c0,0-1.13-17.73,0.91-24.8
                        c3.46-11.97,1.55-31.47-28.56-34.39l-17.43,9.09l8.64,16.98L1790.37,537.53z"/>
                </g>
                <g>
                    <path class="st23" d="M1769.55,510.7l13.13-6.84c-8.71,6.85,16.58,15.58,18.52,22.04c1.93,6.46-10.27,25.06-9.03,29.35
                        c1.23,4.3,22.32,2.69,22.32,2.69l0,0c0.08,1.76,0.14,2.86,0.14,2.86c-4.64,4.21-30.93,7.76-30.93,7.76s4.6-27.36,6.67-31.03
                        l-12.18-9.85L1769.55,510.7z"/>
                </g>
                <g>
                    <path class="st8" d="M1790.37,537.53c-0.5,6.51-8.18,9.8-18.62,10.14c-10.44,0.35-12.23-11.26-12-14.89
                        c0.23-3.63,1.84-5.93,0.67-8.43c-1.17-2.5,3.24-12.6,9.13-13.66c5.89-1.06,19.67,8.8,19.61,15.25c0,0,5.55-2.08,6.61,3.29
                        C1796.34,532.18,1793.52,537.92,1790.37,537.53z"/>
                </g>
                <g>
                    <path class="st2" d="M1753.61,482.44c-6.87-13.95-30.55-20.24-52.88-14.06c-22.33,6.18-34.87,22.51-28.01,36.46
                    c6.62,13.45,28.87,19.78,50.48,14.67l14.62,3.31l1.25-9.49C1752.59,505.49,1758.93,493.25,1753.61,482.44z"/>
                </g>
        </g>
        <!-- 팀워크 로고-->
        <g>
            <g>
                <path class="st2" d="M298.38,604.63v43.15h-44.4v172.47h-74.76V647.78H135v-43.15H298.38z"/>
            </g>
            <g>
                <path class="st2" d="M315.43,604.63h124.66v43.15h-49.9v40.89h46.7v41.02h-46.7v47.41h54.87v43.15H315.43V604.63z"/>
            </g>
            <g>
                <path class="st2" d="M595.78,604.63l42.75,215.63h-76.4l-4.01-38.76h-26.74l-4.5,38.76h-77.29l38.14-215.63H595.78z
                    M556.16,743.27c-3.78-24.42-7.58-54.61-11.39-90.57c-7.62,41.29-12.4,71.48-14.35,90.57H556.16z"/>
            </g>
            <g>
                <path class="st2" d="M881.91,604.63v215.63h-65.35l-0.09-145.57l-26.02,145.57h-46.35l-27.44-142.24l-0.09,142.24h-65.35V604.63
                    h96.74c2.87,12.97,5.83,28.24,8.88,45.84l10.62,54.85l17.18-100.69H881.91z"/>
            </g>
            <g>
                <path class="st2" d="M1193.39,604.63l-33.29,215.63h-93.34c-8.55-33.13-16.08-70.82-22.63-113.07
                    c-2.98,18.12-9.93,55.81-20.85,113.07h-92.81L897,604.63h72.63l7.9,75.23l7.64,72.73c2.76-37.64,9.64-86.96,20.67-147.97h77.63
                    c1.03,6.3,3.74,30.01,8.15,71.12l8.26,82.04c4.25-52.2,11.21-103.25,20.87-153.16H1193.39z"/>
            </g>
            <g>
                <path class="st2" d="M1378.96,730.89c0,21.67-0.68,37.01-2.04,46.01c-1.36,9.01-5.62,17.25-12.78,24.71
                    c-7.16,7.46-16.84,13.19-29.03,17.18c-12.19,4-26.4,5.99-42.62,5.99c-15.39,0-29.21-1.89-41.47-5.66
                    c-12.25-3.77-22.11-9.43-29.57-16.98c-7.46-7.55-11.9-15.76-13.32-24.64c-1.42-8.88-2.13-24.42-2.13-46.61v-36.89
                    c0-21.66,0.68-37,2.04-46.01c1.36-9.01,5.63-17.25,12.78-24.71c7.16-7.46,16.84-13.19,29.04-17.18c12.19-4,26.4-5.99,42.62-5.99
                    c15.39,0,29.21,1.89,41.47,5.66c12.25,3.78,22.11,9.44,29.57,16.98c7.46,7.55,11.9,15.76,13.32,24.64
                    c1.42,8.88,2.13,24.42,2.13,46.61V730.89z M1304.19,660.03c0-10.03-0.74-16.45-2.22-19.25c-1.48-2.8-4.53-4.2-9.14-4.2
                    c-3.91,0-6.9,1.13-8.97,3.4c-2.07,2.26-3.11,8.95-3.11,20.05v100.69c0,12.52,0.68,20.24,2.04,23.17c1.36,2.93,4.53,4.39,9.5,4.39
                    c5.09,0,8.35-1.69,9.76-5.06c1.42-3.37,2.13-11.41,2.13-24.11V660.03z"/>
            </g>
            <g>
                <path class="st2" d="M1406.83,604.63h52.92c35.28,0,59.16,1.02,71.66,3.06c12.49,2.04,22.67,7.26,30.54,15.65
                    c7.87,8.39,11.81,21.78,11.81,40.16c0,16.78-2.78,28.06-8.35,33.83c-5.57,5.77-16.52,9.23-32.85,10.39
                    c14.8,2.75,24.74,6.44,29.83,11.06c5.09,4.62,8.26,8.86,9.5,12.72c1.24,3.86,1.87,14.5,1.87,31.9v56.87h-69.43V748.6
                    c0-11.54-1.22-18.69-3.64-21.44c-2.43-2.75-8.79-4.13-19.09-4.13v97.23h-74.76V604.63z M1481.6,641.52v47.95
                    c8.41,0,14.3-0.86,17.67-2.6c3.38-1.73,5.06-7.35,5.06-16.85v-11.85c0-6.84-1.63-11.32-4.88-13.45
                    C1496.19,642.58,1490.24,641.52,1481.6,641.52z"/>
            </g>
            <g>
                <path class="st2" d="M1780.91,604.63l-42.89,97.36l46.97,118.27h-77.24l-30.28-92.43v92.43h-74.76V604.63h74.76v83.77l33.3-83.77
                    H1780.91z"/>
            </g>
            <path class="st33" d="M1414.24,604.63c4.82,4.89,10.5,10.71,32.92,10.11c22.42-0.6,22.77-2.42,30.29,0.04v-6.26l-56.82-3.89
                L1414.24,604.63z"/>
            <path class="st33" d="M1300.47,605.59c4.73,2.24,39.85,13.29,45.18,14.47c5.34,1.18,8.97,0.83,12.88,1.58
                c3.92,0.74,1.7,6,13.82,12.8c-2.21-4.06-5.16-7.96-8.85-11.7c-7.46-7.54-17.31-13.2-29.57-16.98
                c-12.25-3.77-26.08-5.66-41.47-5.66C1292.47,600.1,1295.74,603.35,1300.47,605.59z"/>
            <path class="st33" d="M1131.65,604.63c0,0,0.99,1.84,4.36,1.84c3.37,0,8.22-1.84,8.22-1.84H1131.65z"/>
            <path class="st34" d="M1717.49,611.81c5.58,1.96,6.96,2.35,13.58,0c6.62-2.35,6.69-4.58,10.8-5.88c4.11-1.3,4.11-1.3,4.11-1.3
                l-13.25-1.48L1717.49,611.81z"/>
        </g>
        <!--팀워크 로고-->
        <g id="p1">
            <g class="st20">
                <path class="st14" d="M283.86,611.07c-6.49,2.16-47.16,9.82-70.75,6.64c-25.23-3.4-33.55-13.09-33.55-13.09l111.25-1.57l9.95,3.6
                    L283.86,611.07z"/>
            </g>
            <g>
                <path class="st8" d="M311.4,597.43c-0.68-8.16-13.02-12-32.08-13.3c-19.07-1.3-44.11-1.38-44.11-1.38l0.15-0.08l-45.51-1.14
                    c-2.47,7.52-2.02,16.48,8.71,24.11c15.84,11.24,82.31-0.64,82.31-0.64s-15.18,18.67-20.83,56.24
                    c-4.69,31.25-15.99,50.54-15.99,50.54s-2.24,7.53-2.4,11.4c-0.19,4.41,3.4,2.67,6.25,3.21c6.27,1.2,13.69-10.66,13.69-10.66
                    s1.99-10.69,4.97-17.26c5.24-11.54,16.51-29.52,25.65-48.55C305.84,621.64,311.73,601.29,311.4,597.43z"/>
            </g>
            <g>
                <path class="st8" d="M239.63,573.98c0,0,41.19-3.2,57.64-2.21c16.48,0.99,18.82-0.22,22.74,12.76
                    c3.93,12.99,3.88,98.54,22.36,110.45c0,0-10.08,4.17-14.02,2.84c-7.18-2.41-15.92-21-15.92-21s5.63-7.99-3.41-20.61
                    c-17.69-24.76-9.02-44.35-5.35-59.49l-92.95-2.72L239.63,573.98z"/>
            </g>
            <g>
                <path class="st5" d="M258.49,669.98l0.01,0.02c0,0,9.48-2.95,20.86,4.39c4.23-7.63,8.74-15.92,12.85-24.46
                    c13.63-28.27,19.53-48.63,19.2-52.48c-0.33-3.88-3.35-6.78-8.45-8.89l-35.66-0.89l-28.58,22.39
                    c21.19-1.3,42.16-5.04,42.16-5.04s-15.18,18.67-20.83,56.24C259.57,664.27,259.05,667.17,258.49,669.98z"/>
                </g>
                <g>
                    <path class="st8" d="M329.28,647.49c1.47,21.84,4.77,42.13,13.1,47.49c0,0-10.08,4.17-14.02,2.84
                        c-7.18-2.41-15.92-21-15.92-21s5.63-7.99-3.41-20.61c-1.66-2.31-3.02-4.58-4.23-6.81c6.52-0.86,17.87-2.19,24.49-1.88
                        C329.28,647.53,329.28,647.5,329.28,647.49z"/>
                </g>
                <g>
                    <path class="st19" d="M193.26,574.09l57.16-1.83c0,0,43.23-2.8,59.94-1.84c16.7,0.97,14.43,12.75,15.42,20.21
                        c1.26,9.51,3.5,56,3.5,56.86c0,0,0,0.03,0,0.03c-6.61-0.31-17.96,1.01-24.49,1.88c-11.91-22.43-13.91-33.94-10.58-47.66
                        c0,0-14.82,7.46-69.38,9.35C168.98,613.05,193.26,574.09,193.26,574.09z"/>
                </g>
                <g>
                    <path class="st19" d="M312.44,676.83c0,0-5.79,4.33-4.53,10.82c1.27,6.47,0.62,11.41,0.08,13.79l3.81,0.37l2.27-14.25
                        c0,0,7.12,7.02,8.64,10.68c1.52,3.68-0.73,4.54,18.9,6.39c9.65,0.91,19.02-0.2,17.55-3.07c-0.98-1.87-13.33-5.12-16.78-6.56
                        C342.38,694.99,329.57,697.75,312.44,676.83z"/>
                </g>
                <g>
                    <path class="st19" d="M261.46,716.46c1.21-4.21-6.36,8.83-12.26,6.99c-5.88-1.83-4.55-8.3-5.16-11.68
                        c0,0-13.78,26.56-0.57,28.36C252.03,741.32,258,728.51,261.46,716.46z"/>
                </g>
                <g>
                    <path class="st11" d="M255.57,572.9c0,0,9.08-20.62,6.91-31.46c-2.17-10.85,14.5-17.62,14.5-17.62l-5.94,48.26L255.57,572.9z"/>
                </g>
            <g class="st20">
                <path class="st5" d="M318.25,574.55c-6.47,5.25-48.53,18.82-55.82,18.82c-10.14,0-47.97-14.74-47.97-14.74L318.25,574.55z"/>
            </g>
            <g class="st4">
                <path class="st11" d="M255.57,572.9c0,0,9.08-20.62,6.91-31.46c-2.17-10.85,14.5-17.62,14.5-17.62l-5.94,48.26L255.57,572.9z"/>
            </g>
                <g>
                    <path class="st39" d="M222.54,469.64c-1.78,3.05-15.29,4.79-13.18,15.19c2.12,10.41,24.64,1.78,24.64,1.78l4.93-15.56
                        l-6.33-6.99L222.54,469.64z"/>
                </g>
                <g>
                    <path class="st39" d="M257.02,468.54c-3.62,4.66-4.3,9.69-3.01,12.78c1.29,3.08,8.87,6.79,4.58,11.42
                        c-4.29,4.64-27.83-0.69-27.83-0.69L257.02,468.54z"/>
                </g>
                <g>
                    <path class="st8" d="M199.04,546.6c-0.81-4.31-2.2-8.98-3.57-13.05c1.68-3.82,3.32-7.66,5.28-11.41
                        c0.08-0.06,0.2-0.09,0.18-0.19c-0.01-0.04-0.01-0.09-0.02-0.13c0.01-0.02,0.02-0.04,0.03-0.06c0.02-0.04-0.05-0.04-0.05-0.08
                        c-2.43-12.45,4.74-24.99,6.93-37.47c10.27-1.62,19.83-1.93,20.26-3.26c0.58-1.83,5.06-16.47,5.06-16.47l20.26,8.71
                        c-2.6,6.81-3.93,14.5,1.88,16.05c7.51,2.01,18.14,3.66,18.44,14.23c0.3,10.55-12.55,29.51-12.02,42.82
                        c0.49,13.32-7.96,16.36-7.96,16.36l-57.79,12.26C195.96,574.91,201,557.19,199.04,546.6z"/>
                </g>
                <g>
                    <path class="st39" d="M272,460.13c0,0,7.94-5.2,6.26-11.97c-1.31-5.25-3.97-15.77-15.54-17.9
                        C248.7,427.69,272,460.13,272,460.13z"/>
                </g>
                <g>
                    <path class="st40" d="M271.24,461.99c0.74,1.41-0.19,2.98-2.07,3.51l-3.83,1.11c-1.86,0.55-3.96-0.14-4.66-1.54l0,0
                        c-0.75-1.4,0.19-2.97,2.05-3.53l3.84-1.11C268.42,459.9,270.51,460.6,271.24,461.99L271.24,461.99z"/>
                </g>
                <g>
                    <path class="st39" d="M275.21,448.67c-0.41-8.91-4.66-18.49-20.91-20.03c-17.12-1.62-28.18,8.21-29.78,15.25
                        c-1.62,7.01-0.73,11.67-0.36,13.16c0.39,1.49,4.14,6.6,8.44,7.01C238.7,464.64,275.21,448.67,275.21,448.67z"/>
                </g>
                <g>
                    <path class="st27" d="M232.5,460.84c0.2,2.55-1.31,6.05-2.15,9.73c1.11,0.71,3.01,2.09,4.44,2.9c9.47,5.45,18.5,6.74,18.5,6.74
                        s-0.89-1.39-2.28-3.43l-18.36-15.98C232.63,460.82,232.58,460.84,232.5,460.84z"/>
                </g>
                <g>
                    <path class="st8" d="M231.87,461.13c0.75,2.62,0.77,6.1,5.68,9.88c4.9,3.82,12.93,8.95,15.74,9.21
                            c2.78,0.26,4.85,1.06,9.98-3.85c5.15-4.91,8.69-7.09,9.9-12.48c1.17-5.4,5.9-16.2-2.41-21.16c-6.13-3.68-17.22-3.27-23.68,0.58
                            c-6.51,3.87-6.91,5.49-10.11,12.26c0,0-3.98-5.27-5.86-5.64c-1.87-0.39-3.66,0.38-3.07,3.46c0.58,3.05,1.63,2.68,1.5,4.19
                            c-0.12,1.55-0.16,3.07,0.76,3.71C231.47,462.07,231.87,461.13,231.87,461.13z"/>
                </g>
                <g>
                    <path class="st39" d="M267.8,441.28c0,0-14.27,14.52-30.94,15.51l-3.9-14.84l16.41-6.97L267.8,441.28z"/>
                </g>
                <g>
                    <path class="st39" d="M264.53,441.54c0,0,5.38,9.36,11.73,12.62c0,0,3.51-12.03-4.86-18.6L264.53,441.54z"/>
                </g>
            <g>
                <path class="st11" d="M189.9,535.2c0,0-9.16-9.69-8.83-17.9c0.47-11.67,5.12-30.03,20.22-32.95c3.48-0.68,8.83-0.75,13.14-1.18
                    c3.81-0.38,6.86-0.66,6.86-0.66s3.06,13.94,23.65,15.81c11.97,1.09,14.63-8.05,14.63-8.05s3.26,0.64,4.07,0.85
                    c1.09,0.28,3.2,1.25,3.2,1.25s8.87,16.11,10.17,19.93c1.72,5.09,4.79,13.19-6.05,20.96c0,0-12.95,27.44-5.53,45.76
                        c0,0-43.06,3.76-72.92-4.2c0,0,6.27-20.59,2.37-28.26C192.59,542.05,193.68,543.25,189.9,535.2z"/>
            </g>
            <g>
                <path class="st11" d="M274.09,503.07c0.02,0.74-0.16,1.6-0.27,2.41c-2.96-5.79-6.8-12.77-6.95-13.05
                    C270.86,494.31,273.92,497.49,274.09,503.07z"/>
            </g>
            <g class="st20">
                <path class="st11" d="M274.09,503.07c0.02,0.74-0.16,1.6-0.27,2.41c-2.96-5.79-6.8-12.77-6.95-13.05
                    C270.86,494.31,273.92,497.49,274.09,503.07z"/>
            </g>
            <g class="st4">
                <path class="st11" d="M192.52,574.83c0,0,3.49-11.46,3.64-20.47c0.02,0,0.12-0.02,0.12-0.02s5.31-2.29,14.08,3.71
                    c8.78,6,52.67,14.84,52.67,14.84s0.28,0.07,0.77,0.2c0.37,2.04,0.87,4.04,1.63,5.93C265.44,579.03,222.66,582.79,192.52,574.83z"
                    />
            </g>
            <g>
                <path class="st39" d="M246.02,428.76c-3.09,0.73-22.24,3.62-26.39,19.26c-1.32,4.95-0.18,12.87,2.91,21.62l8.09,3.06
                    c0,0,1.54-6.55,1.98-8.64c0,0-9.63-4.1-8.31-13.32c1.32-9.21,12.54-13.97,12.54-13.97L246.02,428.76z"/>
            </g>
            <g class="st4">
                <path class="st11" d="M207.92,509.92c-1.36,5.56-7.03,11.76-7.03,11.76l-3.89,16.68l8.72,3.56c0,0-2.54-8-0.59-13.54
                    C207.08,522.84,207.92,509.92,207.92,509.92z"/>
            </g>
            <g>
                <polygon class="st18" points="260.45,588.62 217.7,577.06 276.03,562.77 318.29,572.76 			"/>
            </g>
            <g>
                <polygon class="st41" points="266.49,586.96 312.8,574.26 282.86,567.19 235.9,578.69 			"/>
            </g>
            <g>
                <path class="st8" d="M215.93,561.73c11.25,4.29,21.73,6.2,23.5,6.73c1.78,0.53,1.52,3.51,5.72,4.58c4.2,1.07,7.59,0.1,9.23,0.71
                    c1.64,0.62,1.15,3.02,4.44,4.36c3.29,1.33,5,0.32,6.65,0.84c1.65,0.53,4.49,0.31,4.03-0.86c-0.46-1.17-3.57-9.35-5.45-10.56
                    c-1.88-1.2-15.34-2.21-19.53-3.67c-4.18-1.46-24.09-10.93-24.09-10.93L215.93,561.73z"/>
            </g>
            <g>
                <polygon class="st21" points="260.41,590.41 265.85,551.33 324.18,537.04 318.25,574.55 			"/>
            </g>
            <g>
                <polygon class="st18" points="217.7,577.06 217.66,579.08 260.41,590.41 260.45,588.62 			"/>
            </g>
            <g class="st20">
                <polygon class="st18" points="217.7,577.06 217.66,579.08 260.41,590.41 260.45,588.62 			"/>
            </g>
            <g>
                <polygon class="st21" points="260.41,590.41 259.01,590.04 264.44,550.74 265.85,551.33 			"/>
            </g>
            <g class="st20">
                <polygon class="st18" points="260.41,590.41 259.01,590.04 264.44,550.74 265.85,551.33 			"/>
            </g>
            <g>
                <polygon class="st42" points="324.18,537.04 322.79,536.5 264.44,550.74 265.85,551.33 			"/>
            </g>
            <g>
                <path class="st2" d="M288.71,567.2c2.08,1.61,5.87,1.39,8.47-0.49c2.6-1.89,3.02-4.72,0.94-6.33c-2.08-1.61-5.88-1.39-8.47,0.49
                    C287.05,562.75,286.63,565.59,288.71,567.2z"/>
            </g>
            <g>
                <path class="st11" d="M184.8,499.56c-7.61,30-15.14,41.34-1.67,49.5c16.01,9.7,30.05,12.07,49.31,18.34l5.29-7.1
                    c0,0-1.81-0.54-10.37-6.22c-10.94-7.26-21.25-12.94-30.36-15.72l3.89-16.68L184.8,499.56z"/>
            </g>
            <g class="st24">
                <path class="st11" d="M237.73,560.31l-0.93,1.25l0,0c0,0-14.38-9.33-21.61-12.99c-7.23-3.66-18.27-8.61-18.27-8.61l0.07-1.6
                    c9.11,2.78,19.42,8.46,30.36,15.72C235.91,559.77,237.73,560.31,237.73,560.31z"/>
            </g>
            <g class="p1_1_">
                <path class="st2" d="M253.66,383.01c-6.01-12.19-26.7-17.69-46.23-12.29c-19.53,5.41-30.49,19.68-24.48,31.87
                c5.79,11.76,25.24,17.29,44.13,12.82l12.78,2.89l1.1-8.3C252.77,403.16,258.32,392.47,253.66,383.01z"/>
            </g>
        </g>
        <g id="p2_1_">
            <g>
                <polygon class="st26" points="984.3,817.8 892.17,824.82 892.17,737.3 980.06,744.32 			"/>
            </g>
            <g>
                <path class="st9" d="M1028.76,782.68c9.16,2.78,14.99,8.07,14.99,16.5c0,8.43-36.39,31.31-72.78,34.12
                    c-36.39,2.81-54.58-11.64-54.58-11.64s47.63-10.03,63.68-18.86C996.12,793.96,1015.38,778.62,1028.76,782.68z"/>
            </g>
            <g class="st20">
                <path class="st22" d="M897.93,774.67c0,0,1.89-19.43,2.82-27.41c0,0-2.79,22.09,8.93,25.38c11.73,3.29,72.12,1.65,72.12,1.65
                    l0.24,6.77l-77.85,2.85L897.93,774.67z"/>
            </g>
            <g>
                <path class="st5" d="M868.96,828.11c-15.19,1.18-20,3.18-23.75,7.2c-3.75,4.02,2.88,14.85,11.88,16.86
                    c8.99,2.01,45.03-6.77,56.71-8.8C925.48,841.33,868.96,828.11,868.96,828.11z"/>
            </g>
            <g>
                <path class="st5" d="M966.15,847.75c7.49,0,17.12,2.4,32.64,1.61c15.52-0.81,19.8-4.82,19.27-12.85
                    c-0.54-8.03-7.98-12.45-25.94-10.43c-17.95,2-31.33,4.41-31.33,4.41L966.15,847.75z"/>
            </g>
            <g>
                <path class="st13" d="M961.87,854.97c7.12,0.37,14.99-24.08,12.31-26.89c-2.68-2.81-25.69-2.41-56.19-12.84
                    c-30.5-10.43-47.1-33.71-61.54-32.51c-14.45,1.2-24.08,10.44-26.76,16.05c-2.68,5.62,8.56,15.66,31.57,26.09
                    C884.27,835.31,946.35,854.17,961.87,854.97z"/>
            </g>
            <g class="st24">
                <path class="st9" d="M870.12,789.07c-1.62,6.19-1.03,9.71,11.26,16.29c12.29,6.58,23.99,9,23.99,9l7.02-10.31L870.12,789.07z"/>
            </g>
            <g class="st24">
                <path class="st9" d="M1037.73,787.08c-2.4-1.86-5.43-3.32-8.97-4.4c-13.38-4.06-32.64,11.28-48.7,20.12l4.86,6.3
                    C1003.66,804.46,1035.71,790.06,1037.73,787.08z"/>
            </g>
            <g>
                <path class="st8" d="M896.89,779.23c-4.19,0.41-8.36,0.86-12.55,1.58c-4.72,0.81-9.46,1.45-14.24,1.66
                    c-0.2,4.59-0.07,8.11,0.56,9.52c2.1,4.73,30.02,18.41,30.02,18.41s12.67-6.04,15.71-12.62l-20.68-13.36L896.89,779.23z"/>
            </g>
            <g>
                <path class="st26" d="M935.1,712.76c-11.24,4.82-27.28,4.94-41.73,8.55c-14.45,3.62-14.99,10.03-18.2,23.68
                    c-2.22,9.45-4.54,26.07-5.06,36.98c5.12-0.23,10.18-0.97,15.23-1.84c3.89-0.67,9.98-1.09,13.87-1.45l1.52-24.85l48.49-5.78
                    v-35.52L935.1,712.76z"/>
            </g>
            <g>
                <path class="st26" d="M997.93,770.15c6.6-4.16,14.89-6.51,22.66-9.19c-2.75-2.88-5.69-6.08-8.56-9.75
                    c-10.53-13.42-12.74-18.04-22.58-22.36c-8.65-3.79-28.29-13.15-31.45-16.31h-8.77v35.52l23.69,4.63
                    C972.93,752.69,995.84,768.43,997.93,770.15z"/>
            </g>
            <g>
                <path class="st8" d="M998.27,770.44c5.74,4.79,9.9,9.18,9.9,9.18s-20.46,18.7-26.31,18.68c-5.85-0.02-13.33-0.26-16.49,1.32
                    c-3.16,1.58-17.89,9.47-13.33,9.75c4.56,0.28,1.4-1.33,14.03-0.28c12.63,1.05,10.87-1.06,17.54-3.42
                    c6.67-2.37,9.82-2.63,23.85-8.42c14.03-5.79,24.55-13.42,25.61-19.2c0.76-4.13-4.96-9.25-12.1-16.69
                    C1013.19,764.04,1004.85,766.28,998.27,770.44z"/>
            </g>
            <g>
                <path class="st8" d="M935.28,713.54c-3.33,1.94-4.06,5.53-0.47,11.49c2.22,3.68,7.55,13.66,11.66,20.21
                    c0,0,7.49-11.27,12.38-16.78c3.35-3.77,5.65-7.78,3.89-10.59C958.41,710.95,935.28,713.54,935.28,713.54z"/>
            </g>
            <g>
                <path class="st22" d="M994.71,767.59c-1.59,0.99,4.22,7.6,7.99,7.65c3.46,0.05,15.86-10.46,20.46-11.63
                    c4.44-1.13-4.02-9.01-6.52-8.98C1014.15,754.67,998.35,765.34,994.71,767.59z"/>
            </g>
            <g>
                <path class="st22" d="M867.8,777.72c-0.53,1.09-0.55,8.27,1.66,9.53c2.21,1.26,29.5,1.7,30.45-3.26c0.96-4.96,1.84-9.24-2-9.32
                    c-3.83-0.08-15.82,1.39-20.89,1.39C871.97,776.05,868.85,775.56,867.8,777.72z"/>
            </g>
            <g>
                <g>
                    <path class="st21" d="M899.39,819.7l-8.26-35.48c-0.32-1.36,1.08-2.61,2.93-2.61h96.59c1.9,0,3.32,1.32,2.9,2.71l-10.58,35.37
                        H899.39z"/>
                </g>
                <g class="st20">
                    <polygon class="st18" points="898.72,816.79 899.39,819.7 982.97,819.7 983.84,816.79 				"/>
                </g>
                <g>
                    <path class="st2" d="M951.15,799.67c0,2.04-3.89,3.69-8.7,3.69c-4.8,0-8.7-1.65-8.7-3.69c0-2.04,3.89-3.69,8.7-3.69
                        C947.25,795.98,951.15,797.63,951.15,799.67z"/>
                </g>
                <g class="st24">
                    <polygon class="st2" points="967.92,781.61 923.09,819.7 936.66,819.7 973.61,781.61 				"/>
                </g>
                <g class="st24">
                    <polygon class="st2" points="979.87,781.61 948.35,819.7 956.23,819.7 983.84,781.61 				"/>
                </g>
            </g>
            <g>
                <path class="st43" d="M952.23,671.63c-3.24-2.99-7.01-11.95,5.2-12.01c14.94-0.08,11.23,11.93,6.19,14.18
                    C958.58,676.04,952.23,671.63,952.23,671.63z"/>
            </g>
            <g>
                <path class="st9" d="M952.23,671.63l0.34,1.26c0,0,2.03,2.39,6.78,2.14c4.75-0.25,6.11-1.46,6.11-1.46v-1.08
                    C965.46,672.49,955.21,673.62,952.23,671.63z"/>
            </g>
            <g>
                <path class="st27" d="M962.75,717.87c-4.33-6.92-27.47-4.33-27.47-4.33c-1.5,0.88-2.4,2.12-2.68,3.72
                    c1.57,2.58,11.45,10.6,29.06,7.5C963.24,722.21,963.94,719.77,962.75,717.87z"/>
            </g>
                <g>
                    <path class="st8" d="M946.48,722.57c5.95,0.72,13.6-1.44,17.95-5.77c4.34-4.32,6.37-9.6,8.53-13.79
                        c2.16-4.18,6.93-18.02,2.79-22.97c-4.15-4.95-12.04-7.52-18.32-8.41L946.48,722.57z"/>
                </g>
                <g>
                    <path class="st8" d="M973.42,698.35c1.24-0.79,4.53-1.07,4.2,0.51c-0.34,1.58-2.83,2.35-3.4,4.57
                        c-0.57,2.22-2.11,4.91-5.25,4.65C965.82,707.8,973.42,698.35,973.42,698.35z"/>
                </g>
                <g>
                    <path class="st8" d="M946.48,722.57c-5.95-0.72-12.3-4.58-14.61-9.71c-2.32-5.13-2.04-10.62-2.33-15.1
                        c-0.3-4.48,0.97-18.75,6.98-22.47c6.01-3.72,14.58-4.3,20.91-3.66L946.48,722.57z"/>
                </g>
                <g>
                    <path class="st8" d="M931.05,693.23c-0.85-1.05-3.85-2.09-4.2-0.51c-0.34,1.58,1.7,2.9,1.32,5.15c-0.4,2.24-0.06,5.15,3.04,5.64
                        C934.31,703.99,931.05,693.23,931.05,693.23z"/>
                </g>
                <g>
                    <path class="st43" d="M975.75,680.04c3.13,3.75,1.16,12.6-0.92,18.48c-0.02,0.03-1.9,2.34-2.98,4.1c0,0,0.45-10.39-3.64-11.96
                        c-4.1-1.57-4.84,1.26-14.88,0.05l4.1-19.08C963.71,672.52,971.6,675.09,975.75,680.04z"/>
                </g>
                <g>
                    <path class="st43" d="M936.52,675.29c-4.55,2.82-6.38,11.69-6.86,17.77c0,0.03,0.81,2.66,1.1,4.59c0,0,5.12-9.82,9.67-10.36
                        c4.54-0.52,2.87,2.2,12.9,3.41l4.1-19.08C951.1,670.99,942.53,671.57,936.52,675.29z"/>
                </g>
            <g class="st24">
                <path class="st9" d="M899.39,819.7c5.99,1.52,59.14,5.79,83.58,0H899.39z"/>
            </g>
        </g>
        <g id="p4_1_">
            <g>
                <path class="st5" d="M460.97,818.33c3.12,5.01,0.22,9.84,0,10.34c-0.22,0.5-10.89,3.39-12.45,2.28
                    c-1.56-1.11-4.28,1.01-11.83,2.85c-7.56,1.84-26.81,5.66-31.71,1.49c-4.89-4.17-1.56-8.34,6.67-10.01
                    c8.23-1.66,20.08-8.23,21.19-10.57C433.96,812.37,460.97,818.33,460.97,818.33z"/>
            </g>
            <g>
                <path class="st5" d="M518.06,826.24c3.21,5.15,0.23,10.13,0,10.65c-0.23,0.51-11.22,3.48-12.83,2.34c-1.6-1.14-6,2.03-13.79,3.92
                    c-7.79,1.89-23.32,3.46-28.36-0.84c-5.04-4.29-1.6-8.59,6.87-10.31c8.48-1.72,21.82-5.48,22.98-7.89
                    C494.06,821.72,518.06,826.24,518.06,826.24z"/>
            </g>
            <g>
                <path class="st44" d="M520.16,629.07c6.57,11.23,1.99,27.29,0,45.75c-1.99,18.47-3.37,44.96,0,61.01
                    c3.37,16.06,5.07,85.99-1.61,91.35c-6.85,5.48-28.48,4.15-31.69,0.94c-1.8-1.8-1.76-22.56-3.48-41.12
                    c-1.36-14.6-4.49-36.61-5.84-44.74c-3.06-18.46-11.62-69.85-11.62-69.85v-46.56L520.16,629.07z"/>
            </g>
            <g>
                <path class="st44" d="M470.11,713.01c0,0-0.35,100.11-5.71,104.93c-5.35,4.82-32.5,4.04-35.71,0.02
                    c-1.45-1.8,0.89-18.6,1.03-39.57c0.17-25.7-1.62-66.95-1.03-77.12c1.07-18.47,4.27-51.6,5.54-65.33
                    c1.26-13.74,41.79,2.9,41.79,2.9L470.11,713.01z"/>
            </g>
            <g>
                <path class="st45" d="M441.42,821.19l20.99-156.5l8.34,34.88l-0.64,13.44c0,0-0.35,100.11-5.71,104.93
                    C461.49,820.57,450.94,821.51,441.42,821.19z"/>
            </g>
            <g>
                <path class="st45" d="M434.23,635.94c0.89-9.8,16.97-4.77,31.68-0.36v-9.73l54.25,3.22c6.57,11.23,1.99,27.29,0,45.75
                    c-1.99,18.47-3.37,44.96,0,61.01c3.37,16.06,5.07,85.99-1.61,91.35c-3.74,2.99-13.85,3.95-22.78,3.68
                    c0.58-12.23,3.77-94.28-0.85-101.37c-5.04-7.75-1.4-75.37-1.4-75.37s-38.37-1.58-58.9-7.26l-0.73-0.69
                    C433.89,642.15,433.99,638.64,434.23,635.94z"/>
            </g>
            <g>
                <g>
                    <path class="st8" d="M423.37,483.06c-3.15,0.02-10.73,2.49-12.62,8.62c-1.89,6.13-6.03,19.44-6.03,19.44l15.4,2.33
                        c0,0,7.43,0.13,10.09-1.84c2.65-1.97,6-3.86,8.21-4.51c2.2-0.65,5.39-3.8,3.6-5.03c-1.8-1.23-3.57,3.16-13.65,0.05
                        c-10.07-3.12-6.98-11.23-6.98-11.23L423.37,483.06z"/>
                </g>
                <g class="st24">
                    <path class="st46" d="M431.66,505.95c-3.69,1.34-8.67,2.71-12.48-1.02c-3.82-3.73-4.89-10.46-2.26-14.51
                        c2.62-4.05,7.39,11.11,7.39,11.11L431.66,505.95z"/>
                </g>
                <g>
                    <path class="st47" d="M416.79,496.95c2.11,6.6,10.3,10.78,18.29,9.34c7.99-1.43,11.72-4.68,9.61-11.27
                        c-2.11-6.6-9.25-14.05-17.24-12.61C419.46,483.85,414.68,490.36,416.79,496.95z M431.67,488.75c2.35-0.42,5,1.57,5.92,4.46
                        c0.92,2.89-0.24,5.57-2.59,5.99c-2.35,0.42-5-1.57-5.92-4.46C428.16,491.86,429.31,489.18,431.67,488.75z"/>
                </g>
                <g>
                    <path class="st40" d="M419.39,493.33c2.73,2.19,3.69,6.12,4.92,8.19c0.39,0.66,1.4,1.41,2.7,2.1c0,0.01-0.01,0.01,0,0.02
                        c0.72,2.19,3.2,1.33,4.66,2.3c1.45,0.98,5.2,1.2,5.74-0.25c0,0,1.92,3.62,5.61-0.58c0.7-0.8,1.33-1.87,1.81-3.09
                        c2.06-5.19,1.68-13.35-5-17.38c-8.26-4.99-15.65-2.21-18.03-0.83C419.41,485.19,416.67,491.15,419.39,493.33z M435,499.21
                        c-2.38,0.28-5-1.57-5.92-4.46c-0.92-2.89,0.31-5.37,2.59-5.99c3.13-0.86,6.88,1.19,7.8,4.08
                        C440.39,495.72,438.65,498.79,435,499.21z"/>
                </g>
                <g>
                    <g>
                        <path class="st48" d="M424.53,492.71c0,0.24,0.27,0.44,0.58,0.44c0.32,0,0.58-0.2,0.58-0.44c0-0.24-0.25-0.43-0.58-0.43
                            C424.79,492.28,424.53,492.47,424.53,492.71z"/>
                    </g>
                    <g>
                        <path class="st49" d="M424.6,492.48c0,0.24,0.25,0.43,0.57,0.43c0.32,0,0.59-0.2,0.59-0.43c0-0.24-0.27-0.44-0.59-0.44
                            C424.85,492.04,424.6,492.24,424.6,492.48z"/>
                    </g>
                </g>
                <g>
                    <g>
                        <path class="st48" d="M439.72,499.93c0,0.24,0.26,0.43,0.58,0.43c0.32,0,0.58-0.19,0.58-0.43c0-0.24-0.26-0.43-0.58-0.43
                            C439.98,499.5,439.72,499.69,439.72,499.93z"/>
                    </g>
                    <g>
                        <path class="st49" d="M439.78,499.7c0,0.24,0.27,0.43,0.58,0.43c0.32,0,0.58-0.19,0.58-0.43s-0.25-0.44-0.58-0.44
                            C440.04,499.26,439.78,499.46,439.78,499.7z"/>
                    </g>
                </g>
                <g>
                    <g>
                        <path class="st48" d="M437.3,485.67c0,0.24,0.26,0.44,0.58,0.44c0.32,0,0.58-0.19,0.58-0.44c0-0.24-0.26-0.44-0.58-0.44
                            C437.56,485.23,437.3,485.43,437.3,485.67z"/>
                    </g>
                    <g>
                        <path class="st49" d="M437.36,485.44c0,0.24,0.25,0.44,0.58,0.44c0.32,0,0.58-0.19,0.58-0.44c0-0.24-0.27-0.43-0.58-0.43
                            C437.62,485,437.36,485.2,437.36,485.44z"/>
                    </g>
                </g>
                <g>
                    <g>
                        <path class="st48" d="M423.84,489.09c0,0.12,0.13,0.22,0.3,0.22c0.17,0,0.3-0.1,0.3-0.22c0-0.12-0.14-0.22-0.3-0.22
                            C423.97,488.86,423.84,488.96,423.84,489.09z"/>
                    </g>
                    <g>
                        <path class="st49" d="M423.88,488.97c0,0.12,0.12,0.22,0.29,0.22c0.17,0,0.3-0.1,0.3-0.22c0-0.12-0.14-0.22-0.3-0.22
                            C424,488.74,423.88,488.84,423.88,488.97z"/>
                    </g>
                </g>
                <g>
                    <g>
                        <path class="st48" d="M435.56,501.4c0,0.23,0.24,0.41,0.55,0.41c0.3,0,0.55-0.19,0.55-0.41c0-0.23-0.25-0.42-0.55-0.42
                            C435.8,500.98,435.56,501.17,435.56,501.4z"/>
                    </g>
                    <g>
                        <path class="st49" d="M435.62,501.17c0,0.23,0.25,0.41,0.55,0.41c0.31,0,0.55-0.18,0.55-0.41c0-0.23-0.24-0.41-0.55-0.41
                            C435.87,500.76,435.62,500.95,435.62,501.17z"/>
                    </g>
                </g>
                <g>
                    <g>
                        <path class="st48" d="M442.74,496.08c0,0.14,0.15,0.25,0.33,0.25c0.19,0,0.34-0.11,0.34-0.25c0-0.14-0.15-0.25-0.34-0.25
                            C442.89,495.83,442.74,495.94,442.74,496.08z"/>
                    </g>
                    <g>
                        <path class="st49" d="M442.78,495.94c0,0.14,0.15,0.25,0.33,0.25c0.19,0,0.33-0.11,0.33-0.25c0-0.14-0.15-0.25-0.33-0.25
                            C442.93,495.69,442.78,495.8,442.78,495.94z"/>
                    </g>
                </g>
                <g>
                    <g>
                        <path class="st48" d="M420.1,487.8c0,0.14,0.15,0.25,0.33,0.25c0.19,0,0.34-0.11,0.34-0.25c0-0.14-0.15-0.25-0.34-0.25
                            C420.25,487.55,420.1,487.66,420.1,487.8z"/>
                    </g>
                    <g>
                        <path class="st49" d="M420.14,487.67c0,0.13,0.14,0.25,0.32,0.25c0.19,0,0.34-0.11,0.34-0.25c0-0.14-0.15-0.25-0.34-0.25
                            C420.28,487.42,420.14,487.53,420.14,487.67z"/>
                    </g>
                </g>
                <g>
                    <g>
                        <path class="st48" d="M429.05,500.13c0,0.14,0.15,0.25,0.33,0.25c0.19,0,0.33-0.11,0.33-0.25c0-0.14-0.14-0.25-0.33-0.25
                            C429.21,499.88,429.05,499.99,429.05,500.13z"/>
                    </g>
                    <g>
                        <path class="st49" d="M429.09,499.99c0,0.14,0.15,0.25,0.33,0.25c0.19,0,0.33-0.11,0.33-0.25c0-0.14-0.14-0.25-0.33-0.25
                            C429.24,499.74,429.09,499.86,429.09,499.99z"/>
                    </g>
                </g>
                <g>
                    <g>
                        <path class="st48" d="M425.58,484.59c0,0.23,0.25,0.41,0.55,0.41c0.3,0,0.55-0.18,0.55-0.41c0-0.23-0.25-0.41-0.55-0.41
                            C425.83,484.18,425.58,484.36,425.58,484.59z"/>
                    </g>
                    <g>
                        <path class="st49" d="M425.64,484.37c0,0.23,0.25,0.41,0.55,0.41c0.3,0,0.55-0.18,0.55-0.41c0-0.23-0.24-0.41-0.55-0.41
                            C425.89,483.95,425.64,484.14,425.64,484.37z"/>
                    </g>
                </g>
                <g>
                    <g>
                        <path class="st48" d="M442.22,488.62c0,0.12,0.14,0.22,0.3,0.22c0.16,0,0.3-0.1,0.3-0.22c0-0.12-0.14-0.22-0.3-0.22
                            C442.35,488.39,442.22,488.5,442.22,488.62z"/>
                    </g>
                    <g>
                        <path class="st49" d="M442.25,488.5c0,0.12,0.14,0.22,0.3,0.22c0.17,0,0.3-0.1,0.3-0.22c0-0.12-0.14-0.22-0.3-0.22
                            C442.39,488.27,442.25,488.38,442.25,488.5z"/>
                    </g>
                </g>
                <g>
                    <g>
                        <path class="st48" d="M425.47,496.31c0.26,0.13,0.62,0.09,0.81-0.11c0.18-0.2,0.12-0.47-0.14-0.61
                            c-0.26-0.14-0.62-0.09-0.81,0.11C425.14,495.9,425.2,496.17,425.47,496.31z"/>
                    </g>
                    <g>
                        <path class="st49" d="M425.25,496.14c0.27,0.14,0.63,0.09,0.81-0.11c0.19-0.2,0.12-0.47-0.14-0.61
                            c-0.27-0.13-0.63-0.09-0.81,0.11C424.92,495.73,424.99,496,425.25,496.14z"/>
                    </g>
                </g>
                <g>
                    <g>
                        <path class="st48" d="M429.87,503.82c0.27,0.14,0.63,0.09,0.81-0.11c0.19-0.2,0.12-0.47-0.14-0.61
                            c-0.27-0.14-0.63-0.09-0.81,0.11C429.54,503.42,429.61,503.69,429.87,503.82z"/>
                    </g>
                    <g>
                        <path class="st49" d="M429.66,503.65c0.26,0.14,0.62,0.09,0.81-0.11c0.18-0.2,0.12-0.47-0.15-0.61
                            c-0.26-0.14-0.62-0.09-0.81,0.11C429.33,503.25,429.39,503.51,429.66,503.65z"/>
                    </g>
                </g>
                <g>
                    <g>
                        <path class="st48" d="M430.57,487.07c0.26,0.14,0.62,0.09,0.81-0.11c0.18-0.2,0.12-0.47-0.15-0.6
                            c-0.26-0.14-0.62-0.09-0.8,0.11C430.24,486.66,430.3,486.93,430.57,487.07z"/>
                    </g>
                    <g>
                        <path class="st49" d="M430.34,486.9c0.27,0.14,0.63,0.09,0.81-0.11c0.19-0.2,0.12-0.47-0.15-0.61
                            c-0.27-0.14-0.62-0.09-0.8,0.11C430.02,486.49,430.08,486.76,430.34,486.9z"/>
                    </g>
                </g>
                <g>
                    <g>
                        <path class="st48" d="M427,503.65c3.3,0.82,4.05,1.7,7.83,1.49c0.94-0.05,2.1-1.03,3.48-0.57c3.84,1.27,6.12-1.63,6.69-3.13
                            c-0.06,0.19-0.11,0.4-0.18,0.59c-0.48,1.23-1.11,2.29-1.81,3.09c-3.69,4.2-5.61,0.58-5.61,0.58c-0.54,1.45-4.29,1.22-5.74,0.25
                            C430.21,504.98,427.72,505.84,427,503.65z"/>
                    </g>
                    <g>
                        <path class="st48" d="M445.53,499.59c-0.07,0.33-0.16,0.64-0.25,0.95C445.36,500.24,445.45,499.92,445.53,499.59z"/>
                    </g>
                </g>
            </g>
            <g>
                <path class="st5" d="M518.66,623.39l2.7,8.08c0,0-17.88,16.33-87.28,5.49l0.15-7.45L518.66,623.39z"/>
            </g>
            <g>
                <path class="st50" d="M505.23,512.97c18.65,8.04,31.22,8.04,31.22,16.77c0,8.74-7.46,26.91-10.25,40.54
                    c-2.8,13.63-6.14,49.61-7.54,53.1c-1.4,3.5-39.23,16.96-84.43,6.12c0,0,11.56-101.82,14.82-107.76
                    c3.27-5.94,0.68-4.83,23.08-6.92C494.51,512.73,505.23,512.97,505.23,512.97z"/>
            </g>
            <g>
                <path class="st50" d="M524.15,552.41c-1.35-1.26-2.17-2.09-2.17-2.22c0-0.71-3.66-32.32-3.66-32.32
                    c7.48,1.53,18.22,1.9,23.94,6.78c9.53,8.14,15.41,23.34,21.29,29.51c9.41,9.89,20.1,24.24,17.54,30.24
                    c-5.32,12.47-19.77,11.85-24.16,10.44c-4.39-1.41-29.3-20.03-39.66-30.15C517.27,564.69,517.62,560.36,524.15,552.41z"/>
            </g>
            <g>
                <path class="st10" d="M559.94,568.66c0,0-20.77-14.68-31.88-18.42l-3.56,1.74l-13.8-9.78l4.46-6.86
                    C515.16,535.35,548.47,554.82,559.94,568.66z"/>
            </g>
            <g>
                <g>
                    <path class="st12" d="M494.69,565.22h13.67c1.16,0,2.12-0.68,2.19-1.55l3.64-28.41h-24.9l3.22,28.41
                        C492.57,564.54,493.53,565.22,494.69,565.22z"/>
                </g>
                <g>
                    <rect x="488.31" y="533.2" class="st9" width="26.85" height="2.15"/>
                </g>
                <g>
                    <polygon class="st13" points="492.53,529.2 501.53,529.2 510.52,529.2 513.87,533.2 501.74,533.2 489.61,533.2 				"/>
                </g>
                <g>
                    <path class="st15" d="M494.69,548.94c0,5.2,3.05,9.41,6.83,9.41c3.77,0,6.84-4.21,6.84-9.41c0-5.2-3.07-9.42-6.84-9.42
                        C497.75,539.53,494.69,543.74,494.69,548.94z"/>
                </g>
            </g>
            <g>
                <path class="st50" d="M458.41,516.49c-11.19-0.41-44.39,18.96-44.39,18.96l9.78-21.48l-19.55-6.62c0,0-17.9,29.58-16.94,40.01
                    c0.83,9.09,6.8,12.44,21.01,10.53c14.21-1.91,37.09-6.18,37.09-6.18L458.41,516.49z"/>
            </g>
            <g>
                <path class="st8" d="M524.49,551.98c-3.46-3.77-0.94-8.94-13.18-12c-12.25-3.06-8.47,10.39-8.47,12.5
                    c0,2.12,2.82,8.68,14.43,12.21C529.3,568.35,524.49,551.98,524.49,551.98z"/>
            </g>
            <g>
                <g>
                    <path class="st8" d="M479.68,497.03l16.25,4.28l11.78,1.07c0,0,0.03,10.59,2.98,14.51c0,0-7.37,3.55-20.91,3.09
                        c-12.34-0.41-17.67-2.53-17.67-2.53C477.31,515.19,479.68,497.03,479.68,497.03z"/>
                </g>
                <g class="st24">
                    <path class="st46" d="M473.92,515.94c2.52-3.18,4.18-10.02,5.04-14.54c2.14-1.42,4.17-2.59,5.25-3.18l11.72,3.09l11.78,1.07
                        c0,0-0.16,2.64,0.5,6.56C500.45,512.35,483.15,518.32,473.92,515.94z"/>
                </g>
                <g>
                    <g>
                        <path class="st8" d="M475.44,473.58c-4.83,4.07-2.83,8.4-3.47,10.85c-0.65,2.44-4.24,5.99-3.56,10.61
                            c0.73,5,2.18,16.36,7.6,17.46c9.21,1.87,22.87-2.99,25.72-3.93c5.19-1.71,7.97-3.39,9.45-7.55c0,0,1.37-0.37,2.95-1.43
                            c1.58-1.06,5.03-3.84,6.26-5.91c0.97-1.65,1.22-3.77-1.85-3.53c-3.21,0.24-5.75,3.16-5.75,3.16s-0.89-12.37-9.35-16.4
                            C494.98,472.9,478.83,470.73,475.44,473.58z"/>
                    </g>
                </g>
                <g>
                    <g>
                        <path class="st51" d="M473.18,476.42c0,0,0.8-6.03,5.93-10.81c4.01-3.74,14.95-6.83,23.56-5.53
                            c11.45,1.73,23.52,10.05,23.3,17.97c-0.19,6.97-2.75,8.03-5.82,12.54c0,0-3.77-2.23-9.31,4.9l-2.11,0.08
                            c0,0,4.31-18.16-13.82-17.84C478.05,478.03,475.49,477.9,473.18,476.42z"/>
                    </g>
                </g>
            </g>
            <g>
                <path class="st12" d="M509.2,510.72l9.12,7.15c0,0-14.49,9.2-34.56,10.8l-1.83-9.88C481.93,518.79,501.25,516.42,509.2,510.72z"
                    />
            </g>
            <g>
                <polygon class="st12" points="483.76,519.34 474.72,512.97 468.8,515.18 474.72,527.07 			"/>
            </g>
            <g>
                <path class="st50" d="M528.06,550.24c0,0-9.22,1.82-13.87,14.15l21.13,15.55l-2.05-14.73L528.06,550.24z"/>
            </g>
            <g>
                <path class="st10" d="M514.19,564.4c1.44-3.82,3.31-6.59,5.2-8.63c5.75,5.29,21.82,20.03,31.2,27.94
                    c9.13,7.7,17.31,10.48,22.79,9.26c-6.18,3.38-13.54,2.82-16.46,1.88c-2.56-0.82-12.07-7.48-21.61-14.89v0L514.19,564.4z"/>
            </g>
            <g>
                <path class="st10" d="M409.79,543.46l4.23-8.01c0,0,23.15-13.49,37.3-17.7C438.29,523.73,409.79,543.46,409.79,543.46z"/>
            </g>
            <g class="p4_x5F_1_1_">
            <polygon class="st2" points="380.41,418.87 446.01,407.98 454.81,442.62 428.92,449.99 426.56,462 414.2,454.17 400.27,458.14 		
                "/>
        </g>
        </g>
        <g id="p8_1_">
            <g class="st20">
                <path class="st14" d="M697.85,630.15c8.28-3.05,26.41-7.27,49.55-1.41l-2.19-12.42l-29.13-5.63l-19.69,9.73L697.85,630.15z"/>
            </g>
            <g>
                <path class="st13" d="M671.88,694.46c-0.5,3.06-0.7,5.65-4.51,13.99c-3.45,7.56-13.25,18.62-6.8,22.52
                    c6.02,3.64,17.24,4.31,22.69,2.36c5.44-1.96,8.81-8.82,10.05-14.95c1.24-6.12,0.44-9.94,2.32-10.53c1.88-0.59,4.06-1.85,4.19-5.8
                    c0.13-3.95-1.03-11.39-1.03-11.39L671.88,694.46z"/>
            </g>
            <g>
                <path class="st9" d="M671.92,699.97c9.99,4.09,24.61,0.89,24.61,0.89s2.19,4.93-0.88,5.64c-3.08,0.71-3.03,4.2-3.67,7.49
                    c-0.65,3.29-5.3,15.55-12.37,17.22c-7.07,1.67-19.03-0.24-20.52-4.48c0,0-0.23,0.22-0.62,0.61c0.06,1.49,0.65,2.75,2.11,3.63
                    c6.02,3.64,17.24,4.31,22.69,2.36c5.44-1.96,8.81-8.82,10.05-14.95c1.24-6.12,0.44-9.94,2.32-10.53c1.88-0.59,4.06-1.86,4.19-5.8
                    c0.09-2.86-0.49-7.53-0.82-9.9c-6.02,0.43-11.86,1.08-11.86,1.08L671.92,699.97z"/>
            </g>
            <g>
                <path class="st13" d="M767.85,692.69c0.88,3.02,1.38,5.58,6.19,13.62c4.36,7.29,15.47,17.64,9.52,21.97
                    c-5.55,4.03-16.64,5.47-22.3,3.9c-5.66-1.58-9.85-8.19-11.83-14.2c-1.98-6.01-1.65-9.86-3.6-10.33
                    c-1.95-0.45-4.27-1.56-4.88-5.48c-0.61-3.92-0.36-11.41-0.36-11.41L767.85,692.69z"/>
            </g>
            <g>
                <path class="st9" d="M768.36,700c-9.99,3.07-24.28,0.76-24.28,0.76s-1.58,5.06,1.57,5.55c3.15,0.5,3.52,3.98,4.57,7.21
                    c1.04,3.23,7.18,15.13,14.42,16.3c7.24,1.18,18.92-1.54,19.88-5.87c0,0,0.25,0.21,0.7,0.57c0.12,1.49-0.32,2.78-1.66,3.76
                    c-5.55,4.03-16.64,5.47-22.3,3.9c-5.66-1.58-9.85-8.19-11.83-14.2c-1.98-6.01-1.65-9.86-3.6-10.33
                    c-1.95-0.45-4.27-1.56-4.88-5.48c-0.44-2.84-0.43-7.53-0.4-9.91c6.05,0.02,11.94,0.26,11.94,0.26L768.36,700z"/>
            </g>
            <g>
                <path class="st52" d="M807,560.73c-0.73-2.47-6.05-8.3-9.87-13.73c-1.1-2-2.31-4.17-3.58-6.39c0,0-0.01-0.01-0.01-0.02v0
                    c-3.42-5.96-7.22-16.99-10.23-20.78c-7.15-9-10.57-14.74-24.2-18.15c-13.63-3.4-27.65-7.19-27.65-7.19l-34.21-1.08
                    c-7.51,2.24-32.5,8.82-38.99,12.22c-6.49,3.41-17.85,23.3-25.31,43.75c-0.56,1.55-1.05,2.92-1.49,4.21h0
                    c-4.29,8.32-3.84,19.25-3.15,22.57c0.69,3.32,9.53,6.64,14.74,8c5.21,1.37,24.85-5.35,24.85-5.35l3.63,13.74l96.33-3.9
                    l0.42-17.37c0,0,3.85,5.85,9.32,7.61c5.46,1.76,12.49,5.66,21.6,0C808.3,573.22,808.04,564.24,807,560.73z"/>
            </g>
            <g>
                <path class="st53" d="M659.96,517.96c0.29,5.53-1.86,31.05-7.08,34.73c-5.22,3.69-9.21,4.38-11.97,7.37c0,0,4.6-2.51,7.06-1.95
                    c0,0-6.14,3.31-5.22,7.01c0,0,2.97-3.86,11.36-5.52c8.39-1.66,10.44-5.99,10.44-9.44S662.44,525.32,659.96,517.96z"/>
            </g>
            <g>
                <polygon class="st53" points="754.92,534.58 753.62,520.4 760.31,535.51 			"/>
            </g>
            <g>
                <path class="st53" d="M664.79,559.6c-6.3,0.46-11.68,12.7-8.92,16.84c2.77,4.14,15.66,0,15.66,0v-13.14
                    C671.53,563.31,671.56,559.12,664.79,559.6z"/>
            </g>
            <g>
                <path class="st5" d="M704.02,624.22c2.42-2.89,11.83-5.98,16.23-5.75c4.4,0.22,19.1,4.63,19.1,4.63l10.86-37.47h-58.75l-5,19.3
                    L704.02,624.22z"/>
            </g>
            <g>
                <path class="st53" d="M776.74,555.44c1.42-0.9,10.02-2.32,11.55,0c1.53,2.32,2.46,12.84,0.92,15.3c-1.53,2.45-13.63,1.23-15.26,0
                    c-1.63-1.23-5.02-4.35-2.71-6.7C773.55,561.67,776.74,555.44,776.74,555.44z"/>
            </g>
            <g>
                <path class="st5" d="M672.66,588.64c-6.67,0.56-15.1,4.92-14.16,19.03c0.94,14.1,6.46,75.14,6.05,80.87
                    c-0.41,5.73,0,10.36,0,10.36s24.86,4.85,40.72-1.1c0,0-1.76-57.74-1.47-68.31c0.3-10.58,2.06-28.87,1.47-32.61
                    C704.69,593.13,705.27,585.92,672.66,588.64z"/>
            </g>
            <g>
                <path class="st19" d="M703.8,629.49c0.3-10.58,2.06-28.87,1.47-32.61c-0.45-2.85-0.25-7.68-14.46-8.65
                    c-2.08,16.16,2.72,99.17,3.48,112.03c3.84-0.44,7.61-1.2,10.97-2.46C705.27,697.8,703.51,640.06,703.8,629.49z"/>
            </g>
            <g>
                <path class="st5" d="M767.86,588.64c6.67,0.56,15.1,4.92,14.16,19.03c-0.94,14.1-6.46,75.14-6.05,80.87
                    c0.41,5.73,0,10.36,0,10.36s-24.86,4.85-40.72-1.1c0,0,1.76-57.74,1.47-68.31c-0.29-10.58-2.06-28.87-1.47-32.61
                    C735.83,593.13,735.24,585.92,767.86,588.64z"/>
            </g>
            <g>
                <path class="st19" d="M736.71,629.49c-0.29-10.58-2.06-28.87-1.47-32.61c0.45-2.85,0.25-7.68,14.46-8.65
                    c2.08,16.16-2.72,99.17-3.48,112.03c-3.84-0.44-7.61-1.2-10.97-2.46C735.24,697.8,737.01,640.06,736.71,629.49z"/>
            </g>
            <g>
                <path class="st54" d="M697.46,488.18c0.81,2.26-1.28,9.77-1.07,11.03c0.21,1.26,8.82,11.38,19.67,11.53
                    c10.85,0.16,20.09-8.84,19.67-10.2c-0.42-1.36-1.91-7.67-1.91-10.97C733.83,486.26,697.46,488.18,697.46,488.18z"/>
            </g>
            <g>
                <path class="st55" d="M694.29,483.48c-0.88,1.74,0.27,6.19,1.86,8.95c1.59,2.76,10.03,10.46,20.73,11.58
                    c10.7,1.12,17.99-8.27,19.22-10.74c1.98-3.99,1.3-9.91,1.3-9.91L694.29,483.48z"/>
            </g>
            <g>
                <path class="st54" d="M687.3,474.93c-1.49,0.35-0.72,2.5,1.39,4.48c2.1,1.98,0.9,4.32,2.19,5.16c1.29,0.84,3.32-0.46,3.32-0.46
                    s6.7,10.56,22.86,10.54c13.33-0.02,18.48-5.79,20.34-11.28c0,0,1.98,0.97,2.79-0.95c0.81-1.92,0.87-5.1,1.85-6.41
                    c0.98-1.31,1-4.08-1.5-3.84c-2.49,0.24-5.76-12.94-5.76-12.94s-6.04-4.96-6.58-4.91c-0.54,0.05-30.43,3.39-30.43,3.39
                    l-7.36,12.42L687.3,474.93z"/>
            </g>
            <g>
                <path class="st55" d="M693.39,479.78c0,0-0.99-8.26-6.09-4.86c0,0-3.66-18.3,2.7-18.69c0,0-0.49-10.04,12.34-9.91
                    c12.83,0.13,23.26,0.07,23.3-3.56c0,0,8.64,3.97,5.88,7.93c0,0,8.71,1.8,9.14,10.56s-0.12,10.9-0.12,10.9s-2.52,0.71-3.55,2.8
                    c0,0-0.72-5.23-2.91-9.85c-2.33-4.91-4.93-6.43-4.93-6.43c-0.8,0.48-16.55,5.57-31.25,3.29
                    C697.9,461.97,696.06,476.36,693.39,479.78z"/>
            </g>
            <g>
                <path class="st55" d="M694,484.9l-0.01-3.26c0,0,2.02,4.66,8.13,5.98c6.11,1.32,8.39-1.01,14.81-1.71
                    c6.42-0.7,8.18,1.09,12.22,0.47c4.81-0.74,7.87-5.83,7.87-5.83s0.57,3.18,0.49,5.2c-0.07,2.01-11.99,10.79-12.3,11.07
                    c-0.31,0.28-16.26,1.21-16.26,1.21l-13.78-9.71L694,484.9z"/>
            </g>
            <g>
                <path class="st54" d="M726.03,489.95c0.58,1.01-2.66,2.53-6.81,2.53c-4.15,0-7.52-1-7.51-1.94c0.01-0.81,3.47-2.12,7.61-2.12
                    C723.47,488.43,725.62,489.23,726.03,489.95z"/>
            </g>
            <g>
                <g>
                    <path class="st21" d="M663.5,536.25l5.54,52.34c0,0.03,0.03,0.05,0.07,0.05h98.8c0.04,0,0.07-0.02,0.07-0.05l4.57-53.51
                        c0.09-1.06-0.97-1.95-2.3-1.94l-104.51,1.14C664.41,534.3,663.39,535.2,663.5,536.25z"/>
                </g>
                <g>
                    <path class="st2" d="M729.02,562.45c0,3.94-4.6,7.14-10.27,7.14c-5.67,0-10.27-3.2-10.27-7.14c0-3.94,4.6-7.14,10.27-7.14
                        C724.42,555.31,729.02,558.51,729.02,562.45z"/>
                </g>
                <g class="st20">
                    <path class="st18" d="M668.74,585.57l0.32,3.02c0,0.03,0.03,0.05,0.07,0.05h98.8c0.04,0,0.07-0.02,0.07-0.05l0.26-3.02H668.74z"
                        />
                </g>
                <g class="st1">
                    <polygon class="st2" points="735.12,533.52 684.03,588.64 694.59,588.64 740.59,533.52 				"/>
                </g>
                <g class="st1">
                    <polygon class="st2" points="747.58,533.4 712.27,588.64 717.62,588.64 750.06,533.37 				"/>
                </g>
            </g>
            <g>
                <path class="st54" d="M768.32,550.28c-5.71,0.04-11.33,0-13.11,0.74c-1.78,0.74-3.64,1.27-4.1,2.5c-0.31,0.8,0.77,3.51,2.39,4.28
                    c1.38,0.66,2.85,2.84,3.54,3.03c0.69,0.19,7.14,0.54,8.63,2.59c1.48,2.06,6.55,1.4,8.77,3.09c2.21,1.69,5.99,2.38,8.26,1.71
                    c2.27-0.68,3.91-7.72,2.83-8.77c-1.07-1.05-4.67-3.11-7.6-5.31C776.33,552.94,772.28,550.25,768.32,550.28z"/>
            </g>
            <g>
                <path class="st54" d="M666.13,561.08c-5.46,2.89-5.07,15.13,1.53,14.48L666.13,561.08z"/>
            </g>
            <g>
                <path class="st2" d="M748.11,465.83c0,1.75,1.89,3.16,4.22,3.16c2.32,0,4.2-1.41,4.2-3.16c0-1.74-1.89-3.16-4.2-3.16
                    C750,462.67,748.11,464.09,748.11,465.83z"/>
            </g>
            <g>
                <path class="st2" d="M762.19,461.53c0,2.37,2.56,4.3,5.73,4.3s5.73-1.92,5.73-4.3c0-2.37-2.56-4.3-5.73-4.3
                    S762.19,459.16,762.19,461.53z"/>
            </g>
            <g>
                <path class="st2" d="M775.07,454.19c0,3.29,3.55,5.96,7.94,5.96c4.4,0,7.95-2.67,7.95-5.96c0-3.29-3.55-5.96-7.95-5.96
                    C778.62,448.23,775.07,450.9,775.07,454.19z"/>
            </g>
            <g>
                <path class="st2" d="M768.47,418.45c-2.88,13.62,12.33,26.75,33.98,29.33c21.66,2.58,41.55-6.36,44.44-19.98
                    c2.88-13.62-12.33-26.75-33.98-29.33C791.25,395.89,771.35,404.83,768.47,418.45z"/>
        </g>
        </g>
        <g id="p5_1_">
            <g>
                <path class="st19" d="M1281.1,820.46c1.04,4.04,7.43,13.94,10.1,15.59c2.67,1.65,5.83,2.27,6.53,7.65
                    c0.7,5.38-13.56,5.62-21.18,5.44c-7.62-0.17-13.37-3.26-14.82-7.49c-1.46-4.24-4.45-5.53-6.46-7.3c-2-1.77-2.12-10.8-1.22-14.08
                    C1254.97,816.98,1281.1,820.46,1281.1,820.46z"/>
            </g>
            <g>
                <path class="st19" d="M1165.6,820.46c-1.04,4.04-7.42,13.94-10.1,15.59c-2.67,1.65-5.83,2.27-6.54,7.65
                    c-0.7,5.38,13.56,5.62,21.18,5.44c7.62-0.17,13.37-3.26,14.82-7.49c1.46-4.24,4.45-4.09,6.45-5.86c2-1.77,2.12-10.79,1.22-14.08
                    C1191.73,818.42,1165.6,820.46,1165.6,820.46z"/>
            </g>
            <g>
                <path class="st10" d="M1270.42,667.39c5.28,31.67,5.73,91.55,8.24,119.39c2.06,22.83,6.65,39.79,6.65,39.79
                    s-15.23,4.89-35.84,1.22c0,0-4.14-32.74-7.23-42.52c-3.09-9.79-2.08-36.02-4.14-42.54c-2.06-6.53-15.15-54.67-15.15-54.67v-28.5
                    L1270.42,667.39z"/>
            </g>
            <g>
                <path class="st10" d="M1175.46,667.39c-5.28,31.67-5.73,91.55-8.24,119.39c-2.06,22.83-8.68,42.17-8.68,42.17
                    s17.33,4.28,37.94,0.61c0,0,4.14-32.74,7.23-42.52c3.09-9.79,2.08-36.02,4.14-42.54c2.06-6.52,15.08-56.44,15.08-56.44v-28.5
                    L1175.46,667.39z"/>
            </g>
            <g>
                <path class="st50" d="M1158.54,828.95c0,0,6.62-19.34,8.68-42.17c2.51-27.84,2.96-87.72,8.24-119.39l18.22-3l2.73,5.29
                    c-5.03,10.18-10.56,61.63-12.07,83.18c-1.33,19.01-6.97,66.12-8.27,78.14C1165.6,830.7,1158.54,828.95,1158.54,828.95z"/>
            </g>
            <g>
                <path class="st50" d="M1242.37,662.77l0.89,0.15c1.18,5.55,14.03,76.18,14.86,86.98c0.75,9.81,7.87,63.06,11.59,79.13
                    c-5.67,0.31-12.58,0.13-20.24-1.24c0,0-4.14-32.74-7.23-42.52c-3.09-9.79-2.08-36.02-4.14-42.54
                    c-2.06-6.53-15.15-54.67-15.15-54.67l0.62-19.14L1242.37,662.77z"/>
            </g>
            <g>
                <path class="st56" d="M1160.26,542.84c-1.23-0.41-13.65-3.04-16.91-3.04c0,0,1.77,2.45,7.93,3.4
                    C1157.44,544.15,1160.26,542.84,1160.26,542.84z"/>
            </g>
            <g>
                <path class="st6" d="M1196.24,547.07c0.08,3.38-3.86,1.5-10.07,1.27c-5.01-0.19-7.66,1.24-9.62,2.07
                    c-6.71,2.83-22.09,21.26-22.09,21.26s4.88-19.75,5.8-28.82c0,0-11.83-0.34-16.91-3.04c0,0-16.24,34.76-16.45,45.97
                    c-0.15,7.8,2.94,16.19,7.6,18.86c1.23,0.71,5.33,0.24,6.63,0.18c4.52-0.21,32.57-14.77,38.56-18.92
                    c5.99-4.16,23.43-22.5,23.43-22.5L1196.24,547.07z"/>
            </g>
            <g>
                <g>
                    <path class="st57" d="M1178.44,515.81c-4.23-9.54,2.52-20.7,19.57-24.39c17.96-3.91,28.24,4.61,31.27,12.12
                        c3.03,7.48,2,12.91,2.06,14.58c0.14,3.99-2.46,8.4-2.47,13.49C1228.86,536.69,1178.44,515.81,1178.44,515.81z"/>
                </g>
            </g>
            <g>
                <path class="st8" d="M1224.97,522.01c3.69,8.94,13.5,19.41,22.92,22.23c9.43,2.83,9.43,2.83,9.43,2.83l-45.24,22.91l-24.51-20.6
                    c0,0,15.52-2.99,17.78-8.92C1207.62,534.51,1224.97,522.01,1224.97,522.01z"/>
            </g>
            <g>
                <path class="st27" d="M1205.36,540.45c2.26-5.94,19.62-18.45,19.62-18.45c1.68,4.06,4.65,8.41,8.24,12.24l-0.01,0.03
                    c0,0-8.58,14.43-34.34,16.35c-3.94,0.29-7.03,0.33-9.56,0.21l-1.74-1.47C1187.57,549.37,1203.09,546.39,1205.36,540.45z"/>
            </g>
            <g>
                <path class="st6" d="M1269.71,575.88c0,0-0.7,36.31-2.95,51.49c-2.24,15.17,2.76,25.18,3.66,40.02c0,0-35.89,14.17-96.61,0.68
                    c0,0-0.24-12.35-0.24-31.91c0.01-19.57-0.52-45.87-0.29-57.42c0.27-13.12,2.98-26.2,6.13-28.9c1.87-1.6,6.75-1.49,10.41-1.6
                    c2.52-0.07,9.83-2.57,9.83-2.57l18.02,11.68l29.43-14.03L1269.71,575.88z"/>
            </g>
            <g>
                <path class="st2" d="M1217.67,578.74c0,0,30.32-35.1,29.44-35.42c-1.13-0.41-7.77-3.1-7.77-3.1l-24.08,11.29l-15.6-5.83
                    l-6.24,1.89L1217.67,578.74z"/>
            </g>
            <g>
                <g>
                    <g>
                        <path class="st8" d="M1226.47,522.87c-0.33,2.92,1.53,7.44-2.95,12.15c-4.49,4.72-13.23,10.48-16.15,11.11
                            c-2.88,0.62-5.78,2.99-12.1-1.7c-6.32-4.69-9.58-7.82-11.84-13.53c-2.24-5.7-9.22-16.79-1.36-23.17
                            c5.79-4.75,17.56-5.68,25.09-2.29c7.57,3.38,8.28,5.09,12.91,12.03c0,0,3.23-6.19,5.14-6.83c1.91-0.65,3.93-0.04,3.88,3.35
                            c-0.07,3.4-1.24,3.1-0.82,4.75c0.4,1.64,0.72,3.28-0.13,4.1C1227.06,523.84,1226.47,522.87,1226.47,522.87z"/>
                    </g>
                </g>
                <g>
                    <g>
                        <path class="st57" d="M1184.47,505.91c0,0,22.55-8.71,35.9,13.16l1.41-16.75l-23.34-8.1L1184.47,505.91z"/>
                    </g>
                </g>
                <g>
                    <g>
                        <path class="st57" d="M1182.18,506.72c0,0,6.09,3.05,11.93,3.62c6.32,0.63,14.52-3.34,17.61,0.93
                            c3.1,4.28,7.27,11.54,7.27,11.54l1.39-3.74l-5.7-15.9l-15.55-6.14L1182.18,506.72z"/>
                    </g>
                </g>
                <g>
                    <g>
                        <path class="st57" d="M1184.63,507.12c0,0-2,4.31-6.19,8.69l-0.87-8.63l4.73-5.75L1184.63,507.12z"/>
                    </g>
                </g>
            </g>
            <g>
                <path class="st8" d="M1180.48,523.48c-2.52,1.62-10.81,5.65-10.81,5.65s11.25-5.11,11.92-4.44c0.38,0.37,0.63,1.06-0.45,1.98
                    c-0.52,0.44-1.92,0.86-2.86,1.33c-1.24,0.63-2.62,1.27-3.85,1.85c-1.77,0.84-3.97,2.02-4.41,2.35c-5.61,4.25-8.63,5.03-10.1,4.98
                    c-0.88-0.04-2.08,2.63-2.26,4.15c-0.06,0.54-0.11,0.98-0.16,1.36c-2.89-0.2-7.5-0.68-11.11-1.71c1.38-3.85,2.94-8.35,3.41-10.16
                    c0.54-2.09,3.03-5.04,6.27-6.06c0,0,11.09-5.03,13.63-6.01c2.53-0.97,7.74-3.47,9.01-3.19c1.27,0.28,1.33,1.59,1.33,1.59
                    s1.73-0.23,1.91,1.06c0.18,1.29-0.73,2.02-0.73,2.02S1183.59,521.47,1180.48,523.48z"/>
            </g>
            <g>
                <path class="st27" d="M1166.76,526.86c7.87-3.22,9.49-7.65,8.68-10.46l0,0c1.47-0.56,2.73-0.95,3.27-0.83
                    c1.27,0.28,1.33,1.59,1.33,1.59s1.73-0.23,1.91,1.06c0.18,1.29-0.73,2.02-0.73,2.02s2.38,1.24-0.74,3.25
                    c-2.52,1.62-10.81,5.65-10.81,5.65s11.25-5.11,11.92-4.44c0.38,0.37,0.63,1.06-0.45,1.98c-0.52,0.44-1.92,0.86-2.86,1.33
                    c-1.24,0.63-2.62,1.27-3.85,1.85c-1.77,0.84-3.97,2.02-4.41,2.35c-5.61,4.25-8.63,5.03-10.1,4.98c-0.88-0.04-2.08,2.63-2.26,4.15
                    c-0.06,0.54-0.11,0.98-0.16,1.36c-1.63-0.11-3.79-0.32-6.03-0.65C1152.86,535.96,1159.36,529.89,1166.76,526.86z"/>
            </g>
            <g>
                <path class="st8" d="M1348.19,601.38c7.11,4.24,20.3,10.17,23.19,14.2c2.24,3.12,2.03,4.3,3.56,8.91
                    c1.51,4.53,1.91,7.25,0.93,8.7c-1.73,2.56-7.19-2.53-9.14-4.96c-1.53-1.91-5.25-7.79-6.72-8.29c-0.73-0.24-4.27-0.59-8.73-2.31
                    c-7.02-2.7-5.48-8.59-5.48-8.59L1348.19,601.38z"/>
            </g>
            <g>
                <path class="st6" d="M1247.11,543.32c0.57,0.92,57.65,38.08,65.09,41.71c0,0,38.93,17.65,43.9,18.7
                    c-3.83,12.39-5.97,11.77-9.4,14.52c0,0-39-13.11-45.46-15.65c-6.46-2.53-41.03-27.65-41.03-27.65L1247.11,543.32z"/>
            </g>
            <g>
                <path class="st6" d="M1247.11,543.32c14.31,1.76,22.66-2.38,34.89,9.66c12.24,12.04,24.39,28.17,30.2,32.06
                    c5.81,3.88-21.75,0-21.75,0l-30.74-13.9L1247.11,543.32z"/>
            </g>
            <g class="st20">
                <path class="st7" d="M1269.74,581.79c9.1,7.18,27.09,19.09,31.5,20.82c6.46,2.54,45.46,15.65,45.46,15.65
                    c1.24-0.94,4.8-3.86,5.67-5.48c-19.3-4.98-43.32-13.12-47.59-15.01c-5-2.21-41.82-30.34-41.82-30.34s-8.67,51.33-5.64,60.75
                    c3.04,9.42,4.77,17.54-0.64,19.16c-5.42,1.62-27.12,4.33-39.01,1.68c0,0,8.03,6.45,39.65,3.85c0,0-24.72,12.6-83.65,4.92
                    c0.06,6.56,0.13,10.28,0.13,10.28c60.72,13.49,96.61-0.68,96.61-0.68c-0.9-14.84-5.91-24.85-3.66-40.02
                    C1268.5,615.58,1269.47,592.16,1269.74,581.79z"/>
            </g>
            <g class="st20">
                <path class="st7" d="M1141.13,604.81c3.67-0.17,21.27-9.21,32.09-15.04c0.5-3.19,0.06-11.02,0.06-11.02s-17.14,13.89-26.89,17.86
                    c-9.75,3.97-16.4,1.56-19.49-10.83c-0.15,7.8,2.94,16.19,7.6,18.86C1135.73,605.33,1139.83,604.87,1141.13,604.81z"/>
            </g>
            <g class="st20">
                <path class="st7" d="M1154.46,571.66c-0.29,4.69-1.58,7.08-1.58,7.08s5.11-4.53,4.41-10.38L1154.46,571.66z"/>
            </g>
            <g>
                <path class="st2" d="M1306.89,472.11c-0.02-0.79,0.08-1.55-0.2-2.34c-1.88-5.25-9.09-8.37-16.09-6.95
                    c-1.51,0.3-2.81,0.87-4.02,1.51c-2.26-3.02-6-5.39-10.92-6.13c-9.08-1.37-17.93,3.04-19.76,9.86c-0.5,1.83-0.35,3.63,0.19,5.34
                    c-4.03-0.16-8.13,0.36-11.75,2.17c-8.95,4.47-11.38,13.53-5.43,20.24c3.12,3.52,7.94,5.53,13.08,6.15l-17.81,15.48l26.36-9.63
                    c4.8,6.34,14.53,9.88,24.34,7.9c7.5-1.51,12.65-5.88,14.82-11.04c8.05-1.74,14.87-6.23,17.16-12.76
                    C1319.61,484.16,1315.21,476.4,1306.89,472.11z"/>
            </g>
        </g>
        <g id="p6_1">
                <g>
                    <path class="st5" d="M1543.02,686.9c-0.5,1.49-2.57,8.28-2.48,10c0.17,3.26,1.23,6.41,2.48,7.46c1.92,1.62,10.12,3.49,11.5,2.29
                        c1.38-1.2,4.07-2.1,4.89-1.07c0.81,1.02,6.96,5.45,16.73,6.22c9.77,0.77,20.2,0.82,24.07-1.87c3.86-2.69,3.4-5.9,1.17-8.1
                        c-2.23-2.21-28.64-7.69-31.68-12.44L1543.02,686.9z"/>
                </g>
                <g>
                    <path class="st10" d="M1476.02,567.48c0,0,78.3,18.5,94.93,23.33c16.62,4.83,26.81,11.26,26.27,18.5
                        c-0.53,7.24-11.26,32.17-11.8,39.81c-0.53,7.64-7.62,43.69-8.52,44.36c-0.9,0.68-26.04,2.53-36.14-3.36
                        c0,0,8.53-42.43,8.53-44.96c0-2.52-7.41-34.85-7.41-34.85s-78.12-26.27-75.43-25.76
                        C1469.14,585.05,1476.02,567.48,1476.02,567.48z"/>
                </g>
                <g>
                    <path class="st5" d="M1618.5,703.53c2.06,4.19,8.14,8.92,10.94,9.45c2.8,0.53,10.98-1.4,11.21-2.98
                        c0.23-1.58,1.78-3.45,3.22-2.96c1.45,0.5,9.85,1.55,18.49-1.95c8.65-3.5,17.29-7.88,18.46-11.74c1.17-3.86-1.63-6.31-5.14-7.18
                        c-3.5-0.88-29.43,5.78-35.51,3.15L1618.5,703.53z"/>
                </g>
                <g>
                    <path class="st50" d="M1411.13,591.61c9.12,10.46,13.94,18.9,37.54,19.31c23.6,0.4,28.43,3.62,49.88,11.66
                        c21.45,8.05,37,13.28,37,13.28s46.12,48.67,52.02,55.1c5.9,6.44,14.95,16.09,20.07,16.09c5.13,0,31.94-12.47,36.23-18.5
                        c0,0-47.73-45.04-52.02-48.67c-4.29-3.62-17.7-23.73-26.28-30.17c-8.58-6.43-109.94-47.86-109.94-47.86
                        s-30.03,11.66-37.54,16.49C1410.6,583.17,1411.13,591.61,1411.13,591.61z"/>
                </g>
                <g>
                    <path class="st8" d="M1410.13,480.79c5.81-4.73,5.33-13,5.33-13l30.33,0.87c0,0-1.63,13.81,0.91,18.94
                        C1449.23,492.71,1420.75,495.59,1410.13,480.79z"/>
                </g>
                <g>
                    <path class="st27" d="M1597.8,517.22c1.58,0.45,0.94,1.25,1.34,2.03c0.4,0.78-0.94,1.97-1.28,2.91
                        c-0.34,0.94-0.73,1.7-2.62,2.61c-1.89,0.91-12.58,2.05-14.35,3.12c0,0-4.58-3.55-3.9-4.05
                        C1577.67,523.33,1597.8,517.22,1597.8,517.22z"/>
                </g>
                <g>
                    <path class="st10" d="M1538.52,613.99c-14.85-10.41-93.25-23.52-97.79-28.96c0,0-19.22,0.62-29.34,3.52
                        c-0.33,1.8-0.26,3.05-0.26,3.05c9.12,10.46,13.94,18.9,37.54,19.31c23.6,0.4,28.43,3.62,49.88,11.66
                        c21.45,8.05,37,13.28,37,13.28s46.12,48.67,52.02,55.1c5.9,6.44,14.95,16.09,20.07,16.09c2.67,0,11.2-3.38,19.38-7.47
                        C1627.02,699.56,1553.37,624.4,1538.52,613.99z"/>
                </g>
                <g>
                    <path class="st52" d="M1563.67,532.48c-0.38-3.17-1.22-6.83-2.24-7.62l-0.66,0.08c-1.06,0.13-2.16,0.27-3.3,0.41l-7.98,0.98
                        l-14.44,1.79c-9.3,1.04-19.57,1.94-20.94,1.09c-2.08-1.28-29.57-34.12-36.64-39.93c-7.07-5.81-10.42-3.38-29.58-6.94
                        c0,0,18.1,39.23,20.43,41.77c2.33,2.54,33.22,23.48,35.95,24.06c2.74,0.58,18.29-0.07,31.03-4.63c2.33-0.84,4.73-1.77,7.1-2.74
                        c0.02-0.01,0.05-0.01,0.07-0.02c5.53-2.15,21.21-3.49,21.21-3.49C1564,536.79,1563.95,534.76,1563.67,532.48z"/>
                </g>
                <g>
                    <path class="st52" d="M1445.52,481.89l15.05,2.89c0,0,10.52,15.74,10.78,23.94c0.26,8.2,6.5,28.3,9.25,32.72
                        c2.75,4.42,12.55,28.7,12.63,29.93c0.08,1.23-28.43,0.63-40.58,7.44c-12.15,6.81-37.65,18.84-41.53,18.16
                        c-3.88-0.68-7.41-12.87-9.38-17.93c-1.97-5.06-3.25-48.16-3.25-48.16s16.63-28.1,17.42-28.54c0.8-0.44,21.39-14.42,21.39-14.42
                        L1445.52,481.89z"/>
                </g>
                <g>
                    <path class="st53" d="M1452.65,578.8c12.15-6.81,40.66-6.21,40.58-7.44c-0.08-1.23-9.88-25.51-12.63-29.93
                        c-2.41-3.87-7.5-19.78-8.89-29.18c-2.39-3.49-3.86-5.64-3.86-5.64c4,11.58,4.87,42.56-68.31,49.54
                        c0.56,10.4,1.31,20.58,2.21,22.87c1.97,5.06,5.5,17.25,9.38,17.93C1415,597.64,1440.5,585.62,1452.65,578.8z"/>
                </g>
                <g>
                    <path class="st52" d="M1410.13,480.79c-6.73,2.42-27.74,5.82-30.46,8.66c-2.72,2.84-6.1,21.6-8.84,35.31
                        c-2.73,13.7-5.17,31.08-3.5,34.56c1.68,3.48,9.69,5.35,13.75,6.28c4.05,0.94,47.91-5.82,50.12-7.83c0,0-0.24-6.04-2.34-12.19
                        c0,0-24.65-0.13-35.45,0.9c0,0,3.61-8.69,5.07-15.62l38.8-42.96L1410.13,480.79z"/>
                </g>
                <g>
                    <g>
                        <path class="st53" d="M1441.76,547.05c-29.33-0.24-42.6-28.24-42.68-32.59l-0.6,13.62l0.68,18.17L1441.76,547.05z"/>
                    </g>
                    <g>
                        <path class="st53" d="M1399.09,514.46l-0.01-0.54C1399.08,513.92,1399.08,514.14,1399.09,514.46z"/>
                    </g>
                </g>
                <g>
                    <path class="st12" d="M1444.58,534.1l4.49,21.78c0,0,9.9,3.67,18.78-0.69l-1.46-22.35L1444.58,534.1z"/>
                </g>
                <g>
                    <path class="st13" d="M1441.76,532.31c0.19,0.47,1.62,2.82,1.62,2.82l24.23-1.53l-0.22-3.42L1441.76,532.31z"/>
                </g>
                <g>
                    <polygon class="st9" points="1446.07,528.97 1444.45,532.09 1464.99,530.38 1462.69,527.48 				"/>
                </g>
                <g>
                    <path class="st14" d="M1461.13,526.5c-1.73-2.01-2.46-3.42-0.38-5.73c2.08-2.32-1.78-5.13-1.78-5.13s6.23,3.05,3.82,5.33
                        C1460.39,523.25,1459.64,523.2,1461.13,526.5z"/>
                </g>
                <g>
                    <path class="st15" d="M1462.73,543.95c0.39,3.88-1.94,7.19-5.21,7.37c-3.27,0.18-6.24-2.81-6.63-6.7
                        c-0.39-3.89,1.94-7.19,5.21-7.37C1459.37,537.06,1462.34,540.06,1462.73,543.95z"/>
                </g>
                <g>
                    <path class="st8" d="M1452.02,538.16c-1.78,0.27-12.23,6.16-13.96,7.03c-1.63,0.82-4.54,1.1-8.79,1.72
                        c0.84,2.79,1.33,5.45,1.6,7.45c2.94-0.73,8.59-2.07,10.91-2.16c3.19-0.12,7.22-1.95,10.03-2.88c2.81-0.94,8.24,1.49,9.8,0.96
                        c1.56-0.54,7.39-4.22,6.65-5.87C1467.52,542.75,1453.8,537.89,1452.02,538.16z"/>
                </g>
                <g>
                    <path class="st8" d="M1589.3,520.33c6.44-1.97,10.58-3.64,8.76-4.03c-1.82-0.39-4.95,0.98-15.1,2.83
                        c-10.15,1.84-9.92,3.71-14.45,4.64c-1.99,0.41-4.67,0.79-7.75,1.18l0.66-0.08c1.03,0.79,1.86,4.45,2.24,7.62
                        c1.34-0.37,2.53-0.63,3.33-0.6c4.58,0.17,7.42,1.22,13.42,0.09c6-1.12,11.14-0.39,11.31-1.52c0.16-1.13-5.16-1.69-7.82-1.96
                        c-2.66-0.28-3.33-1.29-3.21-2.58C1580.83,524.64,1582.86,522.31,1589.3,520.33z"/>
                </g>
                <g>
                    <path class="st53" d="M1380.79,554.83c3.85-5.16,12.63-8.34,12.63-8.34s3.61-8.69,5.07-15.62l0.59-16.95
                        C1398.46,525.55,1380.79,554.83,1380.79,554.83z"/>
                </g>
                <g>
                    <path class="st53" d="M1507.03,540.51c-2.59-1.81-38.07-32.7-38.07-32.7c0.37,5.62,3.37,19.45,3.37,19.45
                        c9,6.58,29.72,20.44,31.94,20.91c2.74,0.58,18.29-0.07,31.03-4.63c2.33-0.84,4.73-1.77,7.1-2.74c0.02-0.01,0.05-0.01,0.07-0.02
                        c5.53-2.15,21.21-3.49,21.21-3.49c0.31-0.5,0.26-2.53-0.02-4.81c0,0-27.87,4.96-38.1,7.62
                        C1515.34,542.76,1509.63,542.32,1507.03,540.51z"/>
                </g>
                <g>
                    <g>
                        <path class="st57" d="M1454.25,443.13c2.82-8.09-5.02-18.99-28.15-18.27c-8.36,0.26-16.56,2.4-18.58,8.14
                            c-0.12,0.32-0.57,0.5-0.83,0.77c-3.79,3.72-5.11,8.28-4.81,12.09c0.57,7.47,3.8,12.07,4.66,13.52
                            c0.89,1.46,7.28,5.27,9.58,9.79C1418.42,473.69,1454.25,443.13,1454.25,443.13z"/>
                    </g>
                </g>
                <g>
                    <g>
                        <path class="st8" d="M1413.87,463.06c1.62,2.5,2.01,5.26,8.26,8.24c6.26,2.99,16.12,6.77,19.08,6.56
                            c2.94-0.22,5.33,0.24,9.04-5.63c3.71-5.87,6.67-8.67,6.18-14.35c-0.49-5.67,0.95-17.41-9.15-20.97
                            c-7.47-2.67-18.73-0.33-24.15,4.7c-5.45,5.03-5.35,6.75-6.49,14.16c0,0-4.93-4.24-6.97-4.29c-2.05-0.07-3.65,1.02-2.07,4.03
                            c1.59,3,1.7,2.03,2.06,3.6c0.37,1.56,0.8,3.11,1.96,3.61C1413.05,463.32,1413.87,463.06,1413.87,463.06z"/>
                    </g>
                </g>
                <g>
                    <g>
                        <path class="st57" d="M1446.73,436.04c0,0-5.9-0.25-11.02,1.83c-5.55,2.25-13.23,5.52-14.16,10.15
                            c-0.93,4.63-2.09,9.35-2.09,9.35l-2.39-0.09l-1.88-15.68l11.57-9.64L1446.73,436.04z"/>
                    </g>
                </g>
                <g>
                    <path class="st57" d="M1416.64,455.79c-0.46,5.5-3.24,5.16-3.57,7.84c-0.33,2.67-0.07,4.62,7.34,10.03
                        c7.41,5.41,16.94,9.04,22.01,8.48c5.06-0.56,7.87-4.12,8.43-5.9c0.57-1.78,2.95-9.34,2.95-9.34s-2.13,3.56-7.37,4.93
                        c-5.23,1.37-16.3-0.99-19.89-3.8c-3.59-2.8-7.08-10.65-7.08-10.65l-2.21-7.51l-2.85,1.8L1416.64,455.79z"/>
                </g>
                <g>
                    <path class="st57" d="M1451.92,469.72c1-1.49,1.9-2.81,2.63-4.08c-1.26-0.56-3.34-1.12-6.38-0.79c-3.78,0.42-3.79,0.87-9.3,2.98
                        c-5.94,2.28-8.78,2.35-13.7,0.64c-3.6-1.25-0.78,2.52,1.01,4.65c1.1,0.47,2.22,0.94,3.36,1.39l6.74,0.1l0.84-2.88
                        c5.46-0.64,6.17-2.85,8.86-3.67C1449.22,467.07,1450.18,467.99,1451.92,469.72z"/>
                </g>
                <g>
                    <polygon class="st2" points="1568.42,437 1500.68,421.96 1489.01,450.76 1510.08,458.79 1510.62,469.14 1522.06,463.35 
                        1544.84,469.96 		"/>
                </g>
        </g>
    </g>
</svg>
